<?xml version="1.0" encoding="utf-8"?>
<!-- Generator: Adobe Illustrator 25.2.3, SVG Export Plug-In . SVG Version: 6.00 Build 0)  -->
<svg version="1.1" id="Layer_1" xmlns="http://www.w3.org/2000/svg" xmlns:xlink="http://www.w3.org/1999/xlink" x="0px" y="0px"
	 viewBox="0 0 695 106" style="enable-background:new 0 0 695 106;" xml:space="preserve">
<style type="text/css">
	.st0{fill:#FBC119;}
	.st1{fill:#FFFFFF;}
	.st2{fill:#558048;}
	.st3{font-family:'Montserrat-Bold';}
	.st4{font-size:4.0662px;}
	.st5{font-size:8.2352px;}
	.st6{fill:#6EAA5E;}
	.st7{font-family:'CenturyGothic-Bold';}
	.st8{font-size:36.0663px;}
</style>
<g>
	<path class="st0" d="M62.06,55.61L62.06,55.61c0.01,2.51,2.05,4.56,4.57,4.56c2.52,0,4.56-2.05,4.56-4.56l0-2.9
		c0-2.57-4.13-7.67-4.77-8.44h-6.87c0.61,1.38,2.51,5.92,2.51,8.44L62.06,55.61z"/>
	<path class="st0" d="M61.7,40.31c0.48-0.32,3.36-2.24,5.54-4.37c-0.01-0.56-0.24-3.07-3.79-3.91c-3.28-0.78-4.77,1.09-5.2,1.8
		c1.17,0.55,1.95,1.35,2.31,2.37c0.56,1.62-0.07,3.33-0.44,4.11H61.7z M64.36,34.41c0.44,0,0.8,0.36,0.8,0.8
		c0,0.44-0.36,0.8-0.8,0.8c-0.44,0-0.8-0.36-0.8-0.8C63.56,34.76,63.92,34.41,64.36,34.41z M63.43,37.49c0,0.44-0.36,0.8-0.8,0.8
		c-0.44,0-0.8-0.36-0.8-0.8c0-0.44,0.36-0.8,0.8-0.8C63.07,36.69,63.43,37.05,63.43,37.49z M61.6,33.17c0.44,0,0.8,0.36,0.8,0.8
		c0,0.44-0.36,0.8-0.8,0.8c-0.44,0-0.8-0.36-0.8-0.8C60.81,33.52,61.17,33.17,61.6,33.17z"/>
	<path class="st0" d="M51.77,29.29c0.76,1.16,1.62,2.45,4.83,3.86c0.45-0.83,2.14-3.36,5.8-3.31c-0.01-1.2-0.29-1.98-0.44-2.3
		c-1.95,0.42-3.95,1.61-3.97,1.63l-0.48,0.29l0.05-0.55c0.14-1.56-0.88-3.26-1.25-3.82c-1.83,0.88-2.92,2.6-2.93,2.62L53,28.32
		l-0.13-0.71c-0.32-1.74-1.83-3.32-2.31-3.78c-1.66,0.93-2.19,2.05-2.35,2.52c0.44,0.16,0.85,0.35,1.2,0.56
		C50.69,27.65,51.21,28.44,51.77,29.29z"/>
	<path class="st1" d="M57.12,33.37c0.19,0.08,0.39,0.16,0.6,0.24c0.46-0.76,2.16-3.01,5.85-2.13c3.22,0.77,3.99,2.87,4.17,3.95
		c0.18-0.18,0.34-0.37,0.5-0.55c0.02-0.55-0.08-3.59-4.6-4.35C59.41,29.8,57.59,32.5,57.12,33.37z"/>
	<path class="st1" d="M25.59,79.83v7.17c0,0.91,0.74,1.65,1.66,1.65h2.55V78.17h-2.55C26.34,78.17,25.59,78.92,25.59,79.83z"/>
	<path class="st0" d="M62.71,40.31h8.01c0.82-1.31,2.58-7.36,2.01-8.09c-0.51-0.65-1.85-0.11-2.18,0.05
		c-0.15,0.28-0.31,0.58-0.48,0.9l-0.22,0.42C68.49,36.16,64.43,39.13,62.71,40.31z"/>
	<path class="st1" d="M39.74,40.31h18.7c0.39-0.61,1.04-1.89,0.6-3.1c-0.39-1.08-1.54-1.91-3.44-2.46
		c-3.29-0.96-4.29-2.49-5.27-3.96c-0.57-0.87-1.12-1.7-2.13-2.4c-0.93-0.65-3.01-1.06-5.05-0.53c-1.43,0.37-3.4,1.34-4.66,3.9
		c-2.33,4.72,0.44,8.12,0.87,8.59C39.5,40.32,39.62,40.31,39.74,40.31z M41.11,33.11c0.56-2.19,2.37-3.38,3.8-3.38
		c0.57,0,1.04,0.19,1.36,0.55c0.22,0.24,0.33,0.45,0.3,0.57c-0.03,0.18-0.35,0.35-0.65,0.51c-0.5,0.27-1.13,0.6-1.06,1.31
		c0.16,1.62,5.62,3.08,7.67,3.36c2.44,0.33,2.41,0.77,2.38,1.19c-0.02,0.25-0.07,0.93-1.83,0.93c-0.47,0-1.01-0.05-1.6-0.14
		c-1.55-0.24-3.21-1.2-4.55-1.97c-1.29-0.75-2.1-1.2-2.72-1.2c-0.42,0-0.64,0.22-0.74,0.41c-0.32,0.55-0.32,1.13-0.31,1.6
		c0.01,0.71,0.01,1.1-0.84,1.32c-0.08,0.02-0.15,0.03-0.22,0.03c-0.26,0-0.49-0.13-0.7-0.4C40.74,36.92,40.62,35.04,41.11,33.11z"/>
	<path class="st0" d="M73.37,40.31c1.66-2.95,2.02-5.62,1.83-7.65c-0.37-0.14-1-0.28-1.12-0.2c-0.02,0.01-0.02,0.07-0.02,0.09
		c0.07,2.77-1.96,6.53-2.53,7.77H73.37z"/>
	<path class="st1" d="M65.39,25.1c0.28-0.39,0.78-1.63,0.39-3.75c-0.41-2.23-2.52-4.02-4-4.02c-0.46,0-0.82,0.18-1.07,0.53
		c-0.37,0.53,0.36,1.16,1.6,2.13c0.6,0.47,1.22,0.96,1.73,1.51c1.02,1.1,1.19,2.44,1.29,3.24C65.36,24.85,65.38,24.99,65.39,25.1z"
		/>
	<path class="st0" d="M46.08,68.2v9.4h10.58V62.67h-5.04C48.56,62.67,46.08,65.15,46.08,68.2z M54.42,70.37
		c0.46,0,0.83,0.37,0.83,0.83c0,0.46-0.37,0.83-0.83,0.83c-0.46,0-0.83-0.37-0.83-0.83C53.59,70.74,53.96,70.37,54.42,70.37z"/>
	<path class="st0" d="M62.27,62.67h-5.04v14.93H67.8v-9.4C67.8,65.15,65.32,62.67,62.27,62.67z M59.46,72.02
		c-0.46,0-0.83-0.37-0.83-0.83c0-0.46,0.37-0.83,0.83-0.83c0.46,0,0.83,0.37,0.83,0.83C60.29,71.65,59.92,72.02,59.46,72.02z"/>
	<path class="st1" d="M86.63,78.17h-8.58v0H45.52v0h-3.09v10.47h44.21c0.91,0,1.66-0.74,1.66-1.65v-7.17
		C88.29,78.92,87.55,78.17,86.63,78.17z"/>
	<path class="st0" d="M42.69,55.61c0,2.51,2.04,4.56,4.56,4.56c2.51,0,4.56-2.05,4.56-4.56h0.01l0-2.91c0-2.52,1.91-7.06,2.51-8.44
		h-6.86c-0.64,0.77-4.77,5.87-4.77,8.44L42.69,55.61z"/>
	<path class="st1" d="M45.52,68.2c0-3.36,2.73-6.1,6.1-6.1h10.66c3.36,0,6.1,2.73,6.1,6.1v3.26h9.12V60.6
		c-0.38,0.09-0.77,0.14-1.17,0.14c-2.24,0-4.15-1.44-4.85-3.45c-0.7,2.01-2.6,3.45-4.84,3.45c-2.24,0-4.14-1.44-4.84-3.45
		c-0.7,2.01-2.6,3.45-4.84,3.45c-2.24,0-4.15-1.44-4.84-3.45c-0.7,2.01-2.6,3.45-4.84,3.45c-2.24,0-4.15-1.44-4.84-3.45
		c-0.7,2.01-2.61,3.45-4.85,3.45c-0.4,0-0.79-0.05-1.17-0.14v10.89h9.12V68.2z"/>
</g>
<path class="st2" d="M86.63,77.61h-8.58V60.43c1.97-0.71,3.39-2.6,3.39-4.82V52.7c0-2.59-5.07-7.17-6.66-8.54
	c0.77-0.27,1.33-1.01,1.33-1.87c0-1.09-0.89-1.98-1.98-1.98h-0.13c2.74-5.09,1.79-9.37,0.77-11.13c-0.41-0.71-0.87-1.1-1.29-1.1h0
	c-0.58,0-1.07,0.3-1.57,0.88c-0.21-1.59-1.17-5.18-5.42-6.07c0-0.49-0.04-1.04-0.15-1.66c-0.46-2.52-2.83-4.48-4.56-4.48
	c-0.65,0-1.18,0.26-1.53,0.78c-0.7,1,0.47,1.92,1.71,2.9c0.58,0.46,1.19,0.93,1.67,1.45c0.24,0.26,0.42,0.53,0.57,0.8
	c-4.08,0.07-5.91,2.48-6.56,3.68c-0.42-1.02-0.97-1.76-1-1.81l-0.13-0.18l-0.21,0.09c-1.47,0.63-2.52,1.77-3.03,2.42
	c-0.64-1.97-2.4-3.56-2.48-3.63l-0.15-0.13l-0.17,0.09c-0.48,0.26-0.89,0.53-1.23,0.81c-0.16,0.12-0.3,0.26-0.44,0.39
	c-0.7,0.69-1,1.36-1.13,1.74c-1.77-0.55-3.98-0.67-6.02,0.1c-0.31,0.12-0.62,0.26-0.91,0.41c-0.18,0.09-0.36,0.2-0.53,0.3
	c-1.59,1.01-2.78,2.61-3.48,4.69c-1.98,5.85,0.6,8.66,1.46,9.4c-0.27,0.34-0.43,0.77-0.43,1.23c0,0.86,0.56,1.61,1.33,1.87
	c-1.59,1.38-6.66,5.96-6.66,8.54v2.91c0,2.22,1.42,4.1,3.39,4.82v11.54c0.09-0.02,0.19-0.03,0.29-0.03c0.33,0,0.67,0.11,0.93,0.3
	l5.27,3.76c0.02,0.02,0.04,0.03,0.06,0.05c0.38,0.3,0.61,0.77,0.61,1.26v0.3h-0.57v-0.3c0-0.14-0.03-0.28-0.08-0.4
	c-0.07-0.17-0.19-0.33-0.35-0.44l-5.27-3.77c-0.35-0.26-0.85-0.26-1.21,0l-5.27,3.77c-0.16,0.11-0.28,0.27-0.35,0.44
	c-0.06,0.12-0.08,0.26-0.08,0.4v0.3h-2.56c-1.23,0-2.22,1-2.22,2.22V87c0,1.22,1,2.22,2.22,2.22h2.56v1.75
	c0,0.57,0.46,1.04,1.03,1.04h10.54c0.57,0,1.04-0.47,1.04-1.04v-1.75h44.21c1.23,0,2.22-1,2.22-2.22v-7.17
	C88.86,78.6,87.86,77.61,86.63,77.61z M29.8,88.65h-2.56c-0.91,0-1.65-0.74-1.65-1.65v-7.17c0-0.91,0.74-1.65,1.65-1.65h2.56V88.65z
	 M36.11,78.17c-0.87,0-1.57-0.71-1.57-1.57c0-0.87,0.7-1.58,1.57-1.58c0.86,0,1.57,0.71,1.57,1.58
	C37.68,77.47,36.98,78.17,36.11,78.17z M74.06,32.54c0-0.02,0-0.08,0.02-0.09c0.12-0.08,0.75,0.06,1.12,0.2
	c0.18,2.03-0.18,4.7-1.84,7.65h-1.83C72.1,39.08,74.13,35.32,74.06,32.54z M70.07,33.16c0.17-0.32,0.32-0.62,0.48-0.9
	c0.33-0.16,1.67-0.69,2.18-0.05c0.58,0.73-1.19,6.79-2.01,8.09h-8.01c1.72-1.18,5.78-4.15,7.14-6.73L70.07,33.16z M59.55,44.26h6.86
	c0.64,0.77,4.77,5.87,4.77,8.44v2.91c0,2.51-2.04,4.56-4.56,4.56c-2.51,0-4.56-2.04-4.56-4.56h-0.01V52.7
	C62.06,50.18,60.16,45.64,59.55,44.26z M60.55,36.2c-0.36-1.02-1.13-1.82-2.31-2.37c0.44-0.71,1.93-2.58,5.21-1.8
	c3.54,0.84,3.78,3.35,3.79,3.91c-2.18,2.13-5.06,4.05-5.54,4.37h-1.59C60.48,39.53,61.11,37.82,60.55,36.2z M64.05,21.51
	c-0.51-0.55-1.13-1.04-1.73-1.51c-1.24-0.97-1.97-1.61-1.6-2.14c0.25-0.35,0.61-0.53,1.07-0.53c1.48,0,3.59,1.79,4,4.02
	c0.39,2.12-0.11,3.36-0.39,3.75c-0.02-0.11-0.03-0.24-0.05-0.35C65.24,23.95,65.07,22.61,64.05,21.51z M68.25,34.87
	c-0.16,0.18-0.33,0.37-0.5,0.55c-0.18-1.08-0.95-3.18-4.17-3.94c-3.69-0.87-5.4,1.38-5.85,2.14c-0.21-0.08-0.41-0.16-0.6-0.24
	c0.47-0.86,2.29-3.56,6.52-2.85C68.16,31.28,68.27,34.31,68.25,34.87z M50.56,23.83c0.47,0.46,1.98,2.04,2.31,3.78L53,28.32
	l0.38-0.62c0.01-0.02,1.11-1.74,2.93-2.62c0.37,0.56,1.39,2.26,1.25,3.82l-0.05,0.56l0.48-0.29c0.02-0.02,2.02-1.21,3.97-1.63
	c0.15,0.32,0.43,1.09,0.44,2.3c-3.66-0.05-5.35,2.49-5.8,3.32c-3.21-1.42-4.07-2.71-4.83-3.86c-0.56-0.85-1.09-1.64-2.36-2.39
	c-0.35-0.21-0.76-0.4-1.2-0.56C48.36,25.88,48.89,24.75,50.56,23.83z M38.51,31.75c1.26-2.55,3.23-3.53,4.66-3.89
	c2.04-0.52,4.13-0.12,5.06,0.53c1.01,0.71,1.55,1.53,2.12,2.4c0.97,1.47,1.98,3,5.27,3.96c1.89,0.56,3.05,1.38,3.44,2.46
	c0.44,1.21-0.22,2.49-0.6,3.1h-18.7c-0.12,0-0.25,0.01-0.36,0.03C38.95,39.87,36.18,36.47,38.51,31.75z M54.33,44.26
	c-0.61,1.38-2.51,5.92-2.51,8.44v2.91h-0.01c0,2.51-2.04,4.56-4.56,4.56c-2.52,0-4.56-2.04-4.56-4.56V52.7
	c0-2.57,4.14-7.66,4.77-8.44H54.33z M36.39,71.48V60.6c0.38,0.09,0.77,0.14,1.17,0.14c2.24,0,4.15-1.44,4.85-3.45
	c0.7,2.01,2.61,3.45,4.85,3.45c2.24,0,4.14-1.44,4.84-3.45c0.7,2.01,2.61,3.45,4.85,3.45c2.24,0,4.15-1.44,4.85-3.45
	c0.7,2.01,2.61,3.45,4.84,3.45c2.24,0,4.15-1.44,4.85-3.45c0.7,2.01,2.61,3.45,4.85,3.45c0.4,0,0.79-0.05,1.17-0.14v10.86h-9.12
	V68.2c0-3.36-2.74-6.09-6.1-6.09H51.62c-3.36,0-6.1,2.73-6.1,6.09v3.28H36.39z M67.8,68.2v9.41H57.22V62.68h5.04
	C65.32,62.68,67.8,65.15,67.8,68.2z M56.66,62.68v14.93H46.08V68.2c0-3.05,2.48-5.53,5.53-5.53H56.66z M88.29,87
	c0,0.91-0.74,1.65-1.65,1.65H42.42V78.17h3.09v0h32.54v0h8.58c0.91,0,1.65,0.74,1.65,1.65V87z"/>
<text transform="matrix(1 0 0 1 43.2085 85.2275)" class="st2 st3 st4">UKAMUKTI MARKET</text>
<text transform="matrix(1 0 0 1 33.6587 86.4023)" class="st1 st3 st5">S</text>
<path class="st0" d="M62.27,62.68h-5.04v14.93H67.8V68.2C67.8,65.15,65.32,62.68,62.27,62.68z M59.46,72.02
	c-0.45,0-0.83-0.37-0.83-0.83c0-0.45,0.37-0.82,0.83-0.82c0.45,0,0.83,0.37,0.83,0.82C60.29,71.65,59.92,72.02,59.46,72.02z"/>
<path class="st0" d="M51.62,62.68c-3.05,0-5.53,2.48-5.53,5.53v9.41h10.58V62.68H51.62z M54.42,72.02c-0.45,0-0.83-0.37-0.83-0.83
	c0-0.45,0.37-0.82,0.83-0.82c0.45,0,0.83,0.37,0.83,0.82C55.25,71.65,54.87,72.02,54.42,72.02z"/>
<path class="st2" d="M52.54,36.03c-2.05-0.28-7.51-1.74-7.67-3.36c-0.07-0.71,0.55-1.04,1.06-1.31c0.3-0.16,0.62-0.32,0.65-0.51
	c0.02-0.12-0.09-0.33-0.3-0.57c-0.32-0.36-0.79-0.55-1.36-0.55c-1.43,0-3.25,1.18-3.8,3.38c-0.49,1.93-0.37,3.81,0.31,4.68
	c0.21,0.27,0.44,0.4,0.7,0.4c0.07,0,0.14-0.01,0.22-0.03c0.85-0.22,0.85-0.61,0.84-1.32c0-0.47-0.01-1.05,0.31-1.6
	c0.1-0.19,0.32-0.41,0.74-0.41c0.61,0,1.43,0.45,2.72,1.2c1.34,0.77,3,1.73,4.55,1.97c0.59,0.09,1.13,0.14,1.6,0.14
	c1.76,0,1.81-0.68,1.83-0.93C54.95,36.8,54.99,36.36,52.54,36.03z"/>
<path class="st6" d="M55.25,71.2c0,0.45-0.37,0.83-0.83,0.83c-0.45,0-0.83-0.37-0.83-0.83c0-0.45,0.37-0.82,0.83-0.82
	C54.87,70.37,55.25,70.74,55.25,71.2z"/>
<path class="st6" d="M60.29,71.2c0,0.45-0.37,0.83-0.83,0.83c-0.45,0-0.83-0.37-0.83-0.83c0-0.45,0.37-0.82,0.83-0.82
	C59.92,70.37,60.29,70.74,60.29,71.2z"/>
<path class="st6" d="M61.6,34.76c0.44,0,0.8-0.36,0.8-0.8c0-0.44-0.36-0.8-0.8-0.8c-0.44,0-0.8,0.36-0.8,0.8
	C60.81,34.41,61.17,34.76,61.6,34.76z"/>
<path class="st6" d="M64.36,36c0.44,0,0.8-0.36,0.8-0.8c0-0.44-0.36-0.8-0.8-0.8c-0.44,0-0.8,0.36-0.8,0.8
	C63.56,35.64,63.92,36,64.36,36z"/>
<circle class="st6" cx="62.63" cy="37.49" r="0.8"/>
<path class="st2" d="M44.74,25.15c0.87,0,1.76,0.11,2.6,0.33c0.21-0.42,0.54-0.94,1.06-1.46c0.03-0.03,0.05-0.05,0.08-0.07
	c-0.42-0.51-1.03-0.91-1.76-1.14c-1.32-0.43-2.82-0.26-4.09,0.48c-1.42,0.82-1.81,1.95-1.89,2.75c0.23-0.11,0.47-0.21,0.71-0.3
	C42.48,25.35,43.58,25.15,44.74,25.15z"/>
<text transform="matrix(1 0 0 1 99.2832 71.1152)" class="st2 st7 st8">Sukamukti Market</text>
</svg>
