<?xml version="1.0" encoding="utf-8"?>
<!-- Generator: Adobe Illustrator 25.4.1, SVG Export Plug-In . SVG Version: 6.00 Build 0)  -->
<svg version="1.1" id="Capa_1" xmlns="http://www.w3.org/2000/svg" xmlns:xlink="http://www.w3.org/1999/xlink" x="0px" y="0px"
	 viewBox="0 0 425.2 425.2" style="enable-background:new 0 0 425.2 425.2;" xml:space="preserve">
<style type="text/css">
	.st0{fill:url(#SVGID_1_);}
	.st1{fill:#648E37;}
	.st2{fill:#FFFFFF;}
	.st3{fill:#E2F3FE;}
	.st4{opacity:0.2;fill:#E7EFCA;}
	.st5{fill:#93A333;}
	.st6{fill:#D1D949;}
	.st7{fill:#DADADA;}
	.st8{fill:#F3D17E;}
	.st9{fill:#474746;}
	.st10{fill:#6B6B6A;}
	.st11{fill:#525251;}
	.st12{fill:#3C3C3B;}
	.st13{fill:#E5C797;}
	.st14{fill:#D1A886;}
	.st15{fill:#9B1B1C;}
	.st16{fill:#D42F2E;}
	.st17{fill:#C39D7D;}
	.st18{fill:#8BD1E8;}
	.st19{opacity:0.5;}
	.st20{opacity:0.5;fill:#E5C797;}
	.st21{fill:#D8B382;}
	.st22{fill:#EFD5B1;}
	.st23{fill:#00B1C3;}
	.st24{fill:#C13A2A;}
	.st25{fill:#842918;}
	.st26{fill:#B2B2B2;}
	.st27{fill:#352E35;}
	.st28{fill:#C6C6C6;}
	.st29{fill:#858584;}
	.st30{fill:#BBBABA;}
	.st31{fill:#DDE4F0;}
	.st32{fill:#F9BB8D;}
	.st33{fill:#3D2216;}
	.st34{fill:#5B3329;}
	.st35{fill:#093B59;}
	.st36{fill:#259CC6;}
	.st37{fill:#DCCEC5;}
	.st38{fill:#5B2C0B;}
	.st39{fill:#D99A6C;}
	.st40{fill:#EAD3CD;}
	.st41{fill:#00748F;}
	.st42{fill:#008AAA;}
	.st43{fill:#00A1C9;}
	.st44{fill:#61B9D9;}
	.st45{fill:#D780B3;}
	.st46{fill:#D995C1;}
	.st47{fill:#B53E60;}
	.st48{fill:#9D3456;}
	.st49{fill:#F2E2DB;}
	.st50{fill:#EAD8E2;}
	.st51{fill:#C8CFD4;}
	.st52{fill:#007CA4;}
	.st53{fill:#0099C5;}
	.st54{fill:#72BCC6;}
	.st55{fill:#68A9B2;}
	.st56{fill:#D1DBE1;}
	.st57{fill:#F6A654;}
	.st58{fill:#E8953C;}
</style>
<linearGradient id="SVGID_1_" gradientUnits="userSpaceOnUse" x1="212.6871" y1="258.8426" x2="212.6871" y2="18.3033">
	<stop  offset="0.0321" style="stop-color:#13A086"/>
	<stop  offset="0.9947" style="stop-color:#CAE4D0"/>
</linearGradient>
<path class="st0" d="M300.24,116.38c2.3-6.75,3.53-13.88,3.53-21.25c0-42.43-40.78-76.83-91.09-76.83
	c-50.31,0-91.09,34.4-91.09,76.83c0,7.37,1.24,14.5,3.53,21.25c-22.16,15.11-35.85,35.91-35.85,58.89
	c0,46.15,55.25,83.57,123.41,83.57s123.41-37.41,123.41-83.57C336.1,152.3,322.4,131.49,300.24,116.38z"/>
<path class="st1" d="M314.86,241.84c0.25-0.72,0.39-1.46,0.39-2.2c0-1.04-0.25-2.07-0.74-3.08c16.64-5.51,26.55-12.44,26.55-19.96
	c0-18-56.71-32.59-126.67-32.59S87.71,198.6,87.71,216.6c0,8.76,13.45,16.72,35.33,22.58c-24.66,4.44-40.8,11.8-40.8,20.13
	c0,13.55,64.37,32.2,190,29.04c52.67-1.33,95.39-10.99,95.39-24.55C367.63,254.19,346.14,245.87,314.86,241.84z"/>
<g>
	<path class="st2" d="M156.56,66.4c-0.8,0-1.56,0.12-2.29,0.35c-0.35-2.75-2.6-4.88-5.34-4.88c-1.96,0-3.67,1.1-4.62,2.73
		c-2.53-3.1-6.3-5.06-10.51-5.06c-5.83,0-10.81,3.76-12.83,9.09c-0.24-0.02-0.47-0.04-0.71-0.04c-3.56,0-6.56,2.46-7.55,5.83
		c-0.73-0.39-1.56-0.62-2.45-0.62c-2.98,0-5.39,2.52-5.39,5.62c0,3.1,2.41,5.62,5.39,5.62c1.83,0,3.44-0.95,4.42-2.41
		c1.43,1.49,3.4,2.41,5.58,2.41c1.35,0,2.62-0.36,3.73-0.98c2.5,2.64,5.97,4.27,9.81,4.27c3.25,0,6.23-1.17,8.59-3.13
		c1.43,1.51,3.42,2.45,5.61,2.45c3.23,0,6-2.03,7.22-4.92c0.43,0.08,0.87,0.12,1.32,0.12c4.36,0,7.89-3.68,7.89-8.22
		C164.45,70.08,160.92,66.4,156.56,66.4z"/>
	<g>
		<path class="st3" d="M152.05,62.91c0,0-0.01-0.01-0.01-0.01C152.04,62.91,152.04,62.91,152.05,62.91
			C152.04,62.91,152.05,62.91,152.05,62.91z"/>
		<path class="st3" d="M161.93,68.61c0.18,0.7,0.29,1.42,0.29,2.18c0,4.54-3.53,8.23-7.89,8.23c-0.45,0-0.89-0.05-1.32-0.12
			c-1.22,2.9-3.99,4.92-7.22,4.92c-2.19,0-4.18-0.94-5.61-2.45c-2.36,1.96-5.34,3.13-8.59,3.13c-3.84,0-7.31-1.63-9.81-4.27
			c-1.11,0.62-2.38,0.98-3.73,0.98c-2.18,0-4.15-0.92-5.58-2.41c-0.97,1.45-2.59,2.41-4.42,2.41c-1.16,0-2.22-0.38-3.1-1.03
			c0.35,2.75,2.61,4.87,5.34,4.87c1.83,0,3.44-0.95,4.42-2.41c1.43,1.49,3.4,2.41,5.58,2.41c1.35,0,2.62-0.36,3.73-0.98
			c2.5,2.64,5.97,4.27,9.81,4.27c3.25,0,6.23-1.17,8.59-3.13c1.43,1.51,3.42,2.45,5.61,2.45c3.23,0,6-2.03,7.22-4.92
			c0.43,0.08,0.87,0.12,1.32,0.12c4.36,0,7.89-3.68,7.89-8.22C164.45,72.24,163.48,70.11,161.93,68.61z"/>
	</g>
	<path class="st3" d="M143.63,69.8c-1.74-1.66-4.15-2.09-5.95-0.88c-0.52,0.35-0.94,0.81-1.26,1.35c-0.73-0.36-1.55-0.57-2.41-0.57
		c-2.51,0-4.63,1.72-5.34,4.09c1.29-1.25,3.2-2.04,5.34-2.04c2.14,0,4.05,0.79,5.34,2.04c-0.28-0.94-0.78-1.77-1.44-2.44
		c0.26-0.25,0.54-0.49,0.84-0.7C140.28,69.62,142.06,69.37,143.63,69.8z"/>
</g>
<g>
	<path class="st2" d="M306.66,60.18c-0.55,0-1.09,0.09-1.59,0.25c-0.24-1.91-1.81-3.39-3.7-3.39c-1.36,0-2.55,0.76-3.2,1.89
		c-1.76-2.15-4.37-3.51-7.29-3.51c-4.04,0-7.5,2.61-8.91,6.3c-0.16-0.01-0.33-0.03-0.49-0.03c-2.47,0-4.55,1.7-5.24,4.04
		c-0.51-0.27-1.09-0.43-1.7-0.43c-2.07,0-3.74,1.75-3.74,3.9s1.68,3.9,3.74,3.9c1.27,0,2.39-0.66,3.07-1.67
		c0.99,1.03,2.36,1.67,3.87,1.67c0.94,0,1.82-0.25,2.59-0.68c1.74,1.83,4.15,2.96,6.81,2.96c2.25,0,4.33-0.81,5.96-2.17
		c0.99,1.05,2.37,1.7,3.89,1.7c2.24,0,4.17-1.41,5.01-3.42c0.3,0.05,0.61,0.09,0.92,0.09c3.02,0,5.48-2.56,5.48-5.71
		C312.14,62.74,309.68,60.18,306.66,60.18z"/>
	<g>
		<polygon class="st3" points="303.53,57.76 303.52,57.76 303.52,57.76 		"/>
		<path class="st3" d="M310.38,61.71c0.13,0.48,0.2,0.99,0.2,1.51c0,3.15-2.45,5.71-5.48,5.71c-0.31,0-0.62-0.03-0.92-0.09
			c-0.85,2.01-2.77,3.42-5.01,3.42c-1.52,0-2.9-0.65-3.89-1.7c-1.64,1.36-3.71,2.17-5.96,2.17c-2.66,0-5.07-1.13-6.81-2.96
			c-0.77,0.43-1.65,0.68-2.59,0.68c-1.51,0-2.88-0.64-3.87-1.67c-0.68,1.01-1.8,1.67-3.07,1.67c-0.8,0-1.54-0.27-2.15-0.71
			c0.25,1.91,1.81,3.38,3.7,3.38c1.27,0,2.39-0.66,3.07-1.67c0.99,1.03,2.36,1.67,3.87,1.67c0.94,0,1.82-0.25,2.59-0.68
			c1.74,1.83,4.15,2.96,6.81,2.96c2.25,0,4.33-0.81,5.96-2.17c0.99,1.05,2.37,1.7,3.89,1.7c2.24,0,4.17-1.41,5.01-3.42
			c0.3,0.05,0.61,0.09,0.92,0.09c3.02,0,5.48-2.56,5.48-5.71C312.14,64.24,311.46,62.76,310.38,61.71z"/>
	</g>
	<path class="st3" d="M297.69,62.54c-1.21-1.15-2.88-1.45-4.13-0.61c-0.36,0.24-0.65,0.57-0.87,0.93c-0.51-0.25-1.07-0.4-1.67-0.4
		c-1.74,0-3.21,1.19-3.7,2.84c0.9-0.86,2.22-1.41,3.7-1.41c1.48,0,2.81,0.55,3.7,1.41c-0.19-0.65-0.54-1.23-1-1.69
		c0.18-0.17,0.37-0.34,0.59-0.48C295.36,62.42,296.6,62.24,297.69,62.54z"/>
</g>
<g>
	<path class="st2" d="M223.74,83.1c-0.39,0-0.76,0.06-1.11,0.17c-0.17-1.33-1.26-2.37-2.59-2.37c-0.95,0-1.78,0.53-2.24,1.32
		c-1.23-1.5-3.05-2.45-5.09-2.45c-2.82,0-5.24,1.83-6.22,4.41c-0.11-0.01-0.23-0.02-0.35-0.02c-1.72,0-3.18,1.19-3.66,2.82
		c-0.36-0.19-0.76-0.3-1.19-0.3c-1.44,0-2.61,1.22-2.61,2.73c0,1.5,1.17,2.73,2.61,2.73c0.89,0,1.67-0.46,2.14-1.17
		c0.69,0.72,1.65,1.17,2.7,1.17c0.66,0,1.27-0.17,1.81-0.47c1.21,1.28,2.9,2.07,4.76,2.07c1.57,0,3.02-0.57,4.16-1.52
		c0.69,0.73,1.65,1.19,2.72,1.19c1.57,0,2.91-0.98,3.5-2.39c0.21,0.04,0.42,0.06,0.64,0.06c2.11,0,3.82-1.78,3.82-3.99
		S225.85,83.1,223.74,83.1z"/>
	<g>
		<polygon class="st3" points="221.55,81.41 221.54,81.41 221.54,81.41 		"/>
		<path class="st3" d="M226.34,84.17c0.09,0.34,0.14,0.69,0.14,1.06c0,2.2-1.71,3.99-3.82,3.99c-0.22,0-0.43-0.02-0.64-0.06
			c-0.59,1.4-1.94,2.39-3.5,2.39c-1.06,0-2.02-0.45-2.72-1.19c-1.14,0.95-2.59,1.52-4.16,1.52c-1.86,0-3.54-0.79-4.76-2.07
			c-0.54,0.3-1.16,0.47-1.81,0.47c-1.06,0-2.01-0.45-2.7-1.17c-0.47,0.7-1.26,1.17-2.14,1.17c-0.56,0-1.08-0.19-1.5-0.5
			c0.17,1.33,1.26,2.36,2.59,2.36c0.89,0,1.67-0.46,2.14-1.17c0.69,0.72,1.65,1.17,2.7,1.17c0.66,0,1.27-0.17,1.81-0.47
			c1.21,1.28,2.9,2.07,4.76,2.07c1.57,0,3.02-0.57,4.16-1.52c0.69,0.73,1.65,1.19,2.72,1.19c1.57,0,2.91-0.98,3.5-2.39
			c0.21,0.04,0.42,0.06,0.64,0.06c2.11,0,3.82-1.78,3.82-3.99C227.56,85.94,227.09,84.9,226.34,84.17z"/>
	</g>
	<path class="st3" d="M217.47,84.75c-0.84-0.8-2.01-1.01-2.88-0.43c-0.25,0.17-0.45,0.39-0.61,0.65c-0.35-0.18-0.75-0.28-1.17-0.28
		c-1.21,0-2.24,0.83-2.59,1.99c0.63-0.6,1.55-0.99,2.59-0.99c1.04,0,1.96,0.38,2.59,0.99c-0.13-0.45-0.38-0.86-0.7-1.18
		c0.13-0.12,0.26-0.24,0.41-0.34C215.84,84.66,216.71,84.54,217.47,84.75z"/>
</g>
<g>
	<path class="st2" d="M258.01,36.32c-0.55,0-1.09,0.09-1.59,0.25c-0.24-1.91-1.81-3.39-3.71-3.39c-1.36,0-2.55,0.76-3.21,1.9
		c-1.76-2.15-4.38-3.52-7.3-3.52c-4.05,0-7.51,2.62-8.92,6.32c-0.16-0.02-0.33-0.03-0.49-0.03c-2.47,0-4.56,1.71-5.25,4.05
		c-0.51-0.27-1.09-0.43-1.7-0.43c-2.07,0-3.75,1.75-3.75,3.91c0,2.16,1.68,3.91,3.75,3.91c1.27,0,2.39-0.66,3.07-1.67
		c0.99,1.03,2.36,1.67,3.87,1.67c0.94,0,1.82-0.25,2.6-0.68c1.74,1.83,4.15,2.97,6.82,2.97c2.26,0,4.33-0.82,5.97-2.18
		c0.99,1.05,2.37,1.7,3.9,1.7c2.24,0,4.17-1.41,5.02-3.42c0.3,0.05,0.61,0.09,0.92,0.09c3.03,0,5.48-2.56,5.48-5.72
		C263.5,38.88,261.04,36.32,258.01,36.32z"/>
	<g>
		<polygon class="st3" points="254.87,33.89 254.87,33.89 254.87,33.9 		"/>
		<path class="st3" d="M261.74,37.85c0.13,0.48,0.2,0.99,0.2,1.51c0,3.16-2.46,5.72-5.48,5.72c-0.31,0-0.62-0.03-0.92-0.09
			c-0.85,2.01-2.78,3.42-5.02,3.42c-1.53,0-2.91-0.65-3.9-1.7c-1.64,1.36-3.71,2.18-5.97,2.18c-2.67,0-5.08-1.13-6.82-2.97
			c-0.77,0.43-1.65,0.68-2.59,0.68c-1.51,0-2.88-0.64-3.88-1.67c-0.68,1.01-1.8,1.67-3.07,1.67c-0.8,0-1.55-0.27-2.16-0.71
			c0.25,1.91,1.81,3.38,3.71,3.38c1.27,0,2.39-0.66,3.07-1.67c0.99,1.03,2.36,1.67,3.87,1.67c0.94,0,1.82-0.25,2.6-0.68
			c1.74,1.83,4.15,2.97,6.82,2.97c2.26,0,4.33-0.82,5.97-2.18c0.99,1.05,2.37,1.7,3.9,1.7c2.24,0,4.17-1.41,5.02-3.42
			c0.3,0.05,0.61,0.09,0.92,0.09c3.03,0,5.48-2.56,5.48-5.72C263.5,40.38,262.82,38.9,261.74,37.85z"/>
	</g>
	<path class="st3" d="M249.02,38.68c-1.21-1.15-2.89-1.45-4.13-0.61c-0.36,0.25-0.65,0.57-0.88,0.94c-0.51-0.25-1.08-0.4-1.68-0.4
		c-1.74,0-3.22,1.2-3.71,2.85c0.9-0.87,2.22-1.42,3.71-1.42c1.49,0,2.81,0.55,3.71,1.42c-0.19-0.65-0.54-1.23-1-1.7
		c0.18-0.17,0.37-0.34,0.59-0.48C246.7,38.56,247.93,38.38,249.02,38.68z"/>
</g>
<g>
	<path class="st1" d="M135.66,196.16c-1.34-3.97-2.09-9.55-4.94-12.8c-1.9,1.57-0.57,4.46-0.77,6.43c-3.13-1.79-3.93-7-5.24-9.92
		c-3.06,2.64,0.89,7.65,0.4,10.7c-2.74-0.95-3.42-5.41-5.96-6.36c1.09,3.26,3.41,6.8,3.1,10.15c-0.34,0.1-0.66,0.18-1.02,0.25
		c-3.52-3.78-4.98-10.04-6.74-14.55c-1.09,5.5,2.66,11.45,0.67,16.84c-2.01-3.73-4.89-6.44-6.92-10.13
		c-2.26,1.36,5.6,9.86,1.26,10.69c-0.99-1.8-3.08-8.44-5.61-8.44c0.57,2.72,1.16,5.69-0.09,8.28c-4.78-3.38-4.89-10.2-8.84-14.19
		c-0.4,2.23,0.66,4.89,1,7.19c0.28,1.93,1.52,4.4,1.54,6.1c-1.5-0.75-2.21-2.31-3.53-3.11c1.31,2.47,1.54,5.08,2.77,7.66
		c-0.75-1.28-2.45-2.77-3.54-4.08c-1.3-1.55-2.36-4.79-4.33-5.63c0.98,3.22,4.34,11.45,6.51,15.82
		C108.54,202.69,122,199.05,135.66,196.16z"/>
	<path class="st1" d="M175.67,189.79c-0.63-4.07-0.42-9.68-2.66-13.2c-2.14,1.36-1.33,4.36-1.86,6.29
		c-2.78-2.1-2.66-7.35-3.45-10.38c-3.47,2.29-0.44,7.67-1.45,10.65c-2.54-1.23-2.44-5.72-4.77-6.93c0.51,3.34,2.18,7.09,1.31,10.38
		c-0.35,0.07-0.68,0.11-1.04,0.14c-2.81-4.11-3.17-10.46-4.13-15.12c-2.02,5.33,0.65,11.62-2.24,16.75
		c-1.33-3.9-3.7-6.89-5.06-10.76c-2.46,1.1,3.81,10.36-0.59,10.72c-0.67-1.89-1.58-8.68-4.07-8.95c0.09,2.75,0.16,5.76-1.51,8.19
		c-4.12-3.85-3.06-10.62-6.25-14.99c-0.78,2.17-0.18,4.91-0.25,7.22c-0.05,1.94,0.74,4.52,0.47,6.21c-1.34-0.9-1.78-2.52-2.93-3.45
		c0.86,2.59,0.64,5.2,1.41,7.88c-0.52-1.35-1.93-3-2.78-4.41c-1.01-1.67-1.5-4.99-3.29-6.03c0.41,3.3,2.3,11.79,3.69,16.35
		C147.87,193.41,161.72,191.22,175.67,189.79z"/>
	<path class="st1" d="M216.17,187.85c0.08-4.1,1.26-9.63-0.35-13.35c-2.35,1.12-2.07,4.18-2.93,6.04
		c-2.38-2.37-1.36-7.56-1.62-10.64c-3.82,1.91-1.76,7.56-3.27,10.4c-2.29-1.48-1.42-5.92-3.51-7.36c-0.07,3.36,0.93,7.25-0.5,10.42
		c-0.36,0.03-0.69,0.04-1.05,0.03c-2.07-4.37-1.33-10.7-1.48-15.41c-2.91,5.08-1.36,11.58-5.09,16.36c-0.65-4-2.47-7.21-3.14-11.19
		c-2.61,0.84,1.98,10.66-2.43,10.56c-0.33-1.94-0.07-8.76-2.47-9.29c-0.38,2.73-0.83,5.72-2.9,7.96c-3.4-4.24-1.19-10.84-3.59-15.5
		c-1.14,2.07-1.02,4.84-1.49,7.13c-0.39,1.92-0.05,4.55-0.6,6.2c-1.17-1.04-1.32-2.68-2.29-3.73c0.4,2.66-0.26,5.22,0.04,7.95
		c-0.28-1.39-1.39-3.18-1.98-4.66c-0.71-1.76-0.62-5.1-2.2-6.32c-0.16,3.31,0.24,11.92,0.83,16.58
		C188.09,188.57,202.13,187.84,216.17,187.85z"/>
	<path class="st1" d="M256.77,189.9c0.79-4.06,2.92-9.41,1.97-13.27c-2.53,0.87-2.78,3.93-3.96,5.68c-1.95-2.6-0.04-7.63,0.24-10.71
		c-4.12,1.5-3.05,7.31-5.05,9.97c-2.02-1.71-0.38-6.01-2.21-7.65c-0.66,3.32-0.33,7.28-2.3,10.28c-0.36-0.01-0.69-0.03-1.05-0.08
		c-1.29-4.54,0.54-10.74,1.21-15.42c-3.77,4.73-3.36,11.34-7.89,15.69c0.06-4.03-1.19-7.4-1.17-11.41
		c-2.73,0.56,0.11,10.76-4.24,10.21c0.01-1.96,1.45-8.69-0.84-9.46c-0.85,2.67-1.82,5.59-4.25,7.59c-2.63-4.55,0.7-10.87-0.86-15.73
		c-1.49,1.93-1.85,4.69-2.71,6.92c-0.72,1.86-0.83,4.51-1.67,6.08c-0.98-1.15-0.84-2.8-1.62-3.93c-0.06,2.67-1.16,5.14-1.34,7.89
		c-0.04-1.4-0.82-3.29-1.15-4.82c-0.39-1.82,0.27-5.12-1.08-6.49c-0.74,3.26-1.83,11.84-2.05,16.52
		C228.77,187.71,242.82,188.43,256.77,189.9z"/>
	<path class="st1" d="M296.65,196.36c1.49-3.94,4.54-9.02,4.26-12.94c-2.67,0.6-3.45,3.61-4.93,5.22c-1.5-2.78,1.28-7.57,2.09-10.59
		c-4.37,1.06-4.31,6.92-6.75,9.35c-1.71-1.91,0.66-6-0.88-7.82c-1.23,3.23-1.59,7.18-4.07,9.94c-0.36-0.05-0.68-0.11-1.03-0.19
		c-0.5-4.63,2.4-10.59,3.87-15.16c-4.57,4.3-5.31,10.89-10.57,14.73c0.75-3.99,0.09-7.46,0.81-11.43
		c-2.82,0.27-1.75,10.68-5.99,9.68c0.35-1.94,2.95-8.46,0.8-9.46c-1.31,2.56-2.77,5.35-5.54,7.08c-1.82-4.79,2.58-10.7,1.86-15.68
		c-1.81,1.76-2.65,4.46-3.89,6.57c-1.03,1.77-1.61,4.38-2.71,5.86c-0.77-1.24-0.35-2.86-0.93-4.06c-0.52,2.64-2.04,4.98-2.7,7.68
		c0.21-1.4-0.25-3.35-0.31-4.9c-0.08-1.84,1.15-5.04,0.05-6.54c-1.29,3.16-3.86,11.55-4.9,16.16
		C269.15,191.27,283,193.44,296.65,196.36z"/>
	<path class="st1" d="M335.6,206.84c2.17-3.75,6.1-8.46,6.49-12.38c-2.78,0.3-4.08,3.2-5.83,4.64c-1.02-2.92,2.58-7.37,3.92-10.28
		c-4.56,0.58-5.51,6.4-8.37,8.55c-1.39-2.07,1.69-5.88,0.47-7.85c-1.79,3.07-2.83,6.95-5.79,9.43c-0.35-0.09-0.67-0.18-1-0.3
		c0.3-4.65,4.22-10.24,6.49-14.62c-5.31,3.77-7.19,10.23-13.11,13.47c1.44-3.88,1.38-7.39,2.78-11.25c-2.86-0.03-3.6,10.4-7.65,8.96
		c0.68-1.89,4.41-8.08,2.44-9.3c-1.75,2.4-3.69,5.01-6.76,6.43c-0.99-4.94,4.42-10.33,4.57-15.34c-2.11,1.55-3.42,4.14-5.02,6.1
		c-1.34,1.65-2.36,4.17-3.72,5.52c-0.56-1.31,0.15-2.87-0.23-4.13c-0.98,2.56-2.9,4.72-4.02,7.33c0.45-1.36,0.33-3.34,0.54-4.89
		c0.24-1.83,2.02-4.88,1.18-6.48c-1.84,2.99-5.85,11.04-7.68,15.5C308.96,198.83,322.43,202.46,335.6,206.84z"/>
</g>
<path class="st4" d="M329.46,276.07c3.71,0.2,9.91-1.28,12.39-4.28c1.2-1.45,2.28-5.12,1.85-7.01c-0.88-3.82-1.28-1.85-4-3.68
	c-4.13-2.78-7.67-4.49-12.52-5.23c-4.9-0.75-10.11-0.5-14.12-4.16c-3.39-3.09-5.47-7.93-5.12-12.47c0.29-3.86,4.24-9.78,2.73-13.67
	c-2.99-7.72-18.99-5.33-25.62-5.33c-15.6,0-29.56-9.08-45.17-10.66c-12.85-1.3-24.67,1.07-37.3,1.75
	c-8.88,0.48-17.6-0.96-26.39-0.13c-8.11,0.77-17.4,0.25-24.46,4.88c-9.57,6.27-7.56,19.12-15.92,26.88
	c-6.67,6.18-28.39,11.99-10.28,21.84c3.93,2.14,9.73,3.69,14.1,4.16c6.48,0.69,12.58,2.22,19.08,2.36
	c19.67,0.44,39.36,2.97,59.1,2.97c17.28,0,36.17-3.04,52.98,0.58c14.62,3.14,27.27,9.97,42.72,6.55L329.46,276.07z"/>
<g>
	<g>
		<path class="st5" d="M312.03,212.47c2.66,0,4.81-2.24,4.81-5.01c0-2.77-2.15-5.01-4.81-5.01c0-2.77-2.16-5.01-4.81-5.01
			c-0.92,0-1.76,0.27-2.49,0.73c-0.87-1.27-2.3-2.1-3.91-2.1c-2.66,0-4.81,2.25-4.81,5.01c0,0.48,0.07,0.94,0.19,1.38
			c-0.06,0-0.12-0.01-0.19-0.01c-2.66,0-4.81,2.25-4.81,5.01c0,2.77,2.15,5.01,4.81,5.01H312.03z"/>
		<path class="st6" d="M310.91,203.68c-1.28-0.62-1-1.66-1.67-2.76c-0.49-0.82-1.51-1.32-2.41-1.35c-0.56-0.02-1.02,0.16-1.55,0.27
			c-0.66,0.13-1.01-0.06-1.6-0.37c-1.1-0.57-2.25,0.39-2.71,1.44c0.58-0.17,1.19-0.24,1.76-0.16c1.19,0.16,2.21,1.28,3.4,0.45
			c0.54-0.38,1.39-0.27,1.85,0.21c0.26,0.28,0.37,0.64,0.43,1.01c0.13,0.79,0.57,1.23,1.2,1.63c1.64,1.06,2.08,2.44,1.78,3.76
			c0.63-0.49,1.09-1.1,1.15-1.85C312.59,205.05,311.63,204.03,310.91,203.68z"/>
		<path class="st7" d="M315.86,204.44c0.26,1.34,0.1,3.58-1.23,4.55c-1.96,1.43-5.03,1.71-9.48,1.64c-1.62-0.02-3.7-0.13-5.31-0.26
			c-1.18-0.09-2.54-0.08-3.58-0.77c-1.41-0.94-1.29-2.96-0.43-4.3c0.33-0.51,0.79-0.86,1.34-1.08c0.27-0.11,1.83-0.58,2.03-0.34
			c-2.61-3.14-0.55-7.29,3.54-7.4c-0.59-0.27-1.24-0.43-1.93-0.43c-2.66,0-4.81,2.25-4.81,5.01c0,0.48,0.07,0.94,0.19,1.38
			c-0.06,0-0.12-0.01-0.19-0.01c-2.66,0-4.81,2.25-4.81,5.01c0,2.77,2.15,5.01,4.81,5.01h16.02c2.66,0,4.81-2.24,4.81-5.01
			C316.83,206.32,316.47,205.28,315.86,204.44z"/>
	</g>
	<g>
		<polygon class="st8" points="303.37,114.05 305.59,127.98 312.83,128.01 314.89,114.05 		"/>
		<g>
			<polygon class="st8" points="309.07,114.05 303.37,114.05 305.59,127.98 309.07,127.99 			"/>
		</g>
		<polygon class="st8" points="304.67,115.2 309.07,115.2 309.07,114.05 303.37,114.05 305.59,127.98 306.71,127.98 		"/>
		<polygon class="st8" points="310.01,115.18 314.73,115.18 314.89,114.05 309.19,114.05 309.19,127.99 310.01,128 		"/>
		<polygon class="st9" points="313.36,209.13 305.11,209.13 305.83,192.8 312.65,192.8 		"/>
		<rect x="304.01" y="209.13" class="st10" width="10.44" height="3.34"/>
		<rect x="307.3" y="139.05" class="st11" width="3.87" height="53.75"/>
		<rect x="307.97" y="130.27" class="st10" width="2.52" height="8.78"/>
		<rect x="307.3" y="186.31" class="st10" width="3.87" height="6.5"/>
		<rect x="306.12" y="146.6" class="st12" width="6.23" height="4.22"/>
		<rect x="305.61" y="127.99" class="st12" width="7.24" height="2.28"/>
		<g>
			<path class="st12" d="M313.35,128.59h-8.22l-2.47-15.16h12.88L313.35,128.59z M306.1,127.39h6.26l1.85-12.76h-10.18L306.1,127.39
				z"/>
		</g>
		<g>
			<rect x="308.53" y="113.94" class="st12" width="1.15" height="14.05"/>
		</g>
		<path class="st12" d="M300.79,113.94h16.67c0,0-6.08-4.27-8.51-10.26C308.95,103.69,306.3,110.63,300.79,113.94z"/>
		<polygon class="st2" points="305.41,115.92 308.26,115.92 308.26,126.79 307.19,126.79 		"/>
		<polygon class="st2" points="313.46,115.92 310.62,115.92 310.62,126.79 311.69,126.79 		"/>
	</g>
	<g>
		<path class="st5" d="M323.84,212.47c2.12,0,3.83-1.79,3.83-3.99c0-2.21-1.72-3.99-3.83-3.99c0-2.21-1.71-4-3.83-4
			c-0.73,0-1.4,0.21-1.98,0.58c-0.7-1.01-1.83-1.67-3.11-1.67c-2.12,0-3.83,1.79-3.83,3.99c0,0.38,0.06,0.75,0.15,1.1
			c-0.05,0-0.1-0.01-0.15-0.01c-2.11,0-3.83,1.79-3.83,3.99c0,2.21,1.72,3.99,3.83,3.99H323.84z"/>
		<path class="st6" d="M322.96,205.47c-1.02-0.5-0.8-1.32-1.33-2.2c-0.4-0.65-1.2-1.05-1.92-1.08c-0.44-0.02-0.81,0.12-1.24,0.21
			c-0.53,0.11-0.8-0.05-1.28-0.3c-0.88-0.45-1.79,0.31-2.16,1.15c0.46-0.13,0.95-0.19,1.4-0.13c0.95,0.13,1.76,1.02,2.71,0.36
			c0.43-0.3,1.1-0.22,1.48,0.17c0.21,0.22,0.29,0.51,0.34,0.8c0.1,0.63,0.46,0.98,0.96,1.3c1.31,0.84,1.66,1.94,1.42,2.99
			c0.5-0.39,0.87-0.88,0.92-1.47C324.3,206.56,323.53,205.74,322.96,205.47z"/>
		<path class="st7" d="M326.9,206.07c0.2,1.07,0.08,2.85-0.98,3.63c-1.56,1.14-4.01,1.36-7.55,1.3c-1.29-0.02-2.95-0.11-4.23-0.21
			c-0.94-0.08-2.03-0.07-2.85-0.61c-1.12-0.75-1.03-2.36-0.34-3.42c0.27-0.4,0.63-0.68,1.06-0.86c0.22-0.09,1.46-0.46,1.62-0.27
			c-2.08-2.5-0.44-5.81,2.82-5.89c-0.47-0.22-0.99-0.34-1.54-0.34c-2.12,0-3.83,1.79-3.83,3.99c0,0.38,0.06,0.75,0.15,1.1
			c-0.05,0-0.1-0.01-0.15-0.01c-2.11,0-3.83,1.79-3.83,3.99c0,2.21,1.72,3.99,3.83,3.99h12.76c2.12,0,3.83-1.79,3.83-3.99
			C327.68,207.57,327.39,206.74,326.9,206.07z"/>
	</g>
</g>
<g>
	<g>
		<path class="st5" d="M122.61,212.47c2.66,0,4.81-2.24,4.81-5.01c0-2.77-2.15-5.01-4.81-5.01c0-2.77-2.15-5.01-4.81-5.01
			c-0.91,0-1.76,0.27-2.49,0.73c-0.87-1.27-2.3-2.1-3.91-2.1c-2.65,0-4.81,2.25-4.81,5.01c0,0.48,0.07,0.94,0.19,1.38
			c-0.06,0-0.12-0.01-0.19-0.01c-2.66,0-4.81,2.25-4.81,5.01c0,2.77,2.15,5.01,4.81,5.01H122.61z"/>
		<path class="st6" d="M121.49,203.68c-1.28-0.62-1-1.66-1.67-2.76c-0.49-0.82-1.51-1.32-2.41-1.35c-0.56-0.02-1.02,0.16-1.55,0.27
			c-0.66,0.13-1.01-0.06-1.6-0.37c-1.11-0.57-2.25,0.39-2.71,1.44c0.58-0.17,1.19-0.24,1.76-0.16c1.19,0.16,2.21,1.28,3.4,0.45
			c0.55-0.38,1.39-0.27,1.85,0.21c0.26,0.28,0.37,0.64,0.43,1.01c0.13,0.79,0.57,1.23,1.2,1.63c1.64,1.06,2.08,2.44,1.78,3.76
			c0.63-0.49,1.09-1.1,1.15-1.85C123.17,205.05,122.22,204.03,121.49,203.68z"/>
		<path class="st7" d="M126.44,204.44c0.26,1.34,0.1,3.58-1.23,4.55c-1.96,1.43-5.03,1.71-9.48,1.64c-1.62-0.02-3.7-0.13-5.31-0.26
			c-1.18-0.09-2.54-0.08-3.58-0.77c-1.41-0.94-1.29-2.96-0.43-4.3c0.33-0.51,0.78-0.86,1.33-1.08c0.27-0.11,1.83-0.58,2.03-0.34
			c-2.61-3.14-0.55-7.29,3.54-7.4c-0.59-0.27-1.24-0.43-1.93-0.43c-2.65,0-4.81,2.25-4.81,5.01c0,0.48,0.07,0.94,0.19,1.38
			c-0.06,0-0.12-0.01-0.19-0.01c-2.66,0-4.81,2.25-4.81,5.01c0,2.77,2.15,5.01,4.81,5.01h16.02c2.66,0,4.81-2.24,4.81-5.01
			C127.41,206.32,127.05,205.28,126.44,204.44z"/>
	</g>
	<g>
		<polygon class="st8" points="113.95,114.05 116.17,127.98 123.41,128.01 125.48,114.05 		"/>
		<g>
			<polygon class="st8" points="119.65,114.05 113.95,114.05 116.17,127.98 119.65,127.99 			"/>
		</g>
		<polygon class="st8" points="115.25,115.2 119.65,115.2 119.65,114.05 113.95,114.05 116.17,127.98 117.29,127.98 		"/>
		<polygon class="st8" points="120.59,115.18 125.31,115.18 125.48,114.05 119.78,114.05 119.78,127.99 120.59,128 		"/>
		<polygon class="st9" points="123.94,209.13 115.69,209.13 116.41,192.8 123.23,192.8 		"/>
		<rect x="114.6" y="209.13" class="st10" width="10.44" height="3.34"/>
		<rect x="117.88" y="139.05" class="st11" width="3.87" height="53.75"/>
		<rect x="118.55" y="130.27" class="st10" width="2.52" height="8.78"/>
		<rect x="117.88" y="186.31" class="st10" width="3.87" height="6.5"/>
		<rect x="116.7" y="146.6" class="st12" width="6.23" height="4.22"/>
		<rect x="116.2" y="127.99" class="st12" width="7.24" height="2.28"/>
		<g>
			<path class="st12" d="M123.93,128.59h-8.22l-2.47-15.16h12.88L123.93,128.59z M116.68,127.39h6.26l1.85-12.76h-10.18
				L116.68,127.39z"/>
		</g>
		<g>
			<rect x="119.12" y="113.94" class="st12" width="1.15" height="14.05"/>
		</g>
		<path class="st12" d="M111.37,113.94h16.67c0,0-6.08-4.27-8.51-10.26C119.53,103.69,116.88,110.63,111.37,113.94z"/>
		<polygon class="st2" points="116,115.92 118.84,115.92 118.84,126.79 117.77,126.79 		"/>
		<polygon class="st2" points="124.05,115.92 121.2,115.92 121.2,126.79 122.27,126.79 		"/>
	</g>
	<g>
		<path class="st5" d="M134.43,212.47c2.12,0,3.83-1.79,3.83-3.99c0-2.21-1.72-3.99-3.83-3.99c0-2.21-1.72-4-3.83-4
			c-0.73,0-1.41,0.21-1.98,0.58c-0.7-1.01-1.83-1.67-3.11-1.67c-2.12,0-3.83,1.79-3.83,3.99c0,0.38,0.06,0.75,0.15,1.1
			c-0.05,0-0.1-0.01-0.15-0.01c-2.12,0-3.83,1.79-3.83,3.99c0,2.21,1.71,3.99,3.83,3.99H134.43z"/>
		<path class="st6" d="M133.54,205.47c-1.02-0.5-0.8-1.32-1.34-2.2c-0.4-0.65-1.2-1.05-1.92-1.08c-0.44-0.02-0.82,0.12-1.24,0.21
			c-0.53,0.11-0.8-0.05-1.28-0.3c-0.88-0.45-1.79,0.31-2.16,1.15c0.46-0.13,0.95-0.19,1.4-0.13c0.95,0.13,1.76,1.02,2.71,0.36
			c0.43-0.3,1.1-0.22,1.47,0.17c0.21,0.22,0.3,0.51,0.34,0.8c0.1,0.63,0.46,0.98,0.96,1.3c1.31,0.84,1.66,1.94,1.42,2.99
			c0.5-0.39,0.87-0.88,0.92-1.47C134.88,206.56,134.12,205.74,133.54,205.47z"/>
		<path class="st7" d="M137.49,206.07c0.2,1.07,0.08,2.85-0.98,3.63c-1.56,1.14-4.01,1.36-7.55,1.3c-1.29-0.02-2.95-0.11-4.23-0.21
			c-0.94-0.08-2.03-0.07-2.85-0.61c-1.12-0.75-1.03-2.36-0.34-3.42c0.26-0.4,0.63-0.68,1.06-0.86c0.22-0.09,1.46-0.46,1.62-0.27
			c-2.08-2.5-0.44-5.81,2.82-5.89c-0.47-0.22-0.99-0.34-1.54-0.34c-2.12,0-3.83,1.79-3.83,3.99c0,0.38,0.06,0.75,0.15,1.1
			c-0.05,0-0.1-0.01-0.15-0.01c-2.12,0-3.83,1.79-3.83,3.99c0,2.21,1.71,3.99,3.83,3.99h12.76c2.12,0,3.83-1.79,3.83-3.99
			C138.26,207.57,137.97,206.74,137.49,206.07z"/>
	</g>
</g>
<rect x="180.43" y="154.07" class="st13" width="67.31" height="73.41"/>
<rect x="180.43" y="223.99" class="st14" width="67.31" height="3.5"/>
<g>
	<g>
		<rect x="181.8" y="169.01" class="st15" width="64.51" height="3.04"/>
		<rect x="180.15" y="154.07" class="st15" width="67.8" height="14.78"/>
	</g>
	<g>
		<rect x="180.01" y="163.36" class="st16" width="5.66" height="12.9"/>
		<rect x="185.68" y="163.36" class="st2" width="5.66" height="12.9"/>
		<rect x="191.34" y="163.36" class="st16" width="5.66" height="12.9"/>
		<rect x="197" y="163.36" class="st2" width="5.66" height="12.9"/>
		<rect x="202.66" y="163.36" class="st16" width="5.66" height="12.9"/>
		<rect x="208.32" y="163.36" class="st2" width="5.66" height="12.9"/>
		<rect x="213.99" y="163.36" class="st16" width="5.66" height="12.9"/>
		<rect x="219.65" y="163.36" class="st2" width="5.66" height="12.9"/>
		<rect x="225.31" y="163.36" class="st16" width="5.66" height="12.9"/>
		<rect x="230.97" y="163.36" class="st2" width="5.66" height="12.9"/>
		<rect x="236.63" y="163.36" class="st16" width="5.66" height="12.9"/>
		<rect x="242.29" y="163.36" class="st2" width="5.66" height="12.9"/>
		<path class="st15" d="M180.03,176.26c0.17,1.45,1.37,2.57,2.81,2.57s2.64-1.12,2.81-2.57H180.03z"/>
		<path class="st7" d="M185.7,176.26c0.17,1.45,1.36,2.57,2.81,2.57c1.45,0,2.64-1.12,2.81-2.57H185.7z"/>
		<path class="st15" d="M191.36,176.26c0.18,1.45,1.37,2.57,2.81,2.57c1.45,0,2.64-1.12,2.81-2.57H191.36z"/>
		<path class="st7" d="M197.02,176.26c0.17,1.45,1.36,2.57,2.81,2.57c1.45,0,2.64-1.12,2.81-2.57H197.02z"/>
		<path class="st15" d="M202.68,176.26c0.17,1.45,1.36,2.57,2.81,2.57c1.45,0,2.64-1.12,2.81-2.57H202.68z"/>
		<path class="st7" d="M208.34,176.26c0.17,1.45,1.36,2.57,2.81,2.57c1.44,0,2.64-1.12,2.81-2.57H208.34z"/>
		<path class="st15" d="M214.01,176.26c0.17,1.45,1.37,2.57,2.81,2.57c1.45,0,2.64-1.12,2.81-2.57H214.01z"/>
		<path class="st7" d="M219.67,176.26c0.18,1.45,1.37,2.57,2.81,2.57c1.45,0,2.64-1.12,2.81-2.57H219.67z"/>
		<path class="st15" d="M225.33,176.26c0.17,1.45,1.36,2.57,2.81,2.57c1.44,0,2.64-1.12,2.81-2.57H225.33z"/>
		<path class="st7" d="M230.99,176.26c0.17,1.45,1.36,2.57,2.81,2.57c1.45,0,2.64-1.12,2.81-2.57H230.99z"/>
		<path class="st15" d="M236.65,176.26c0.18,1.45,1.37,2.57,2.81,2.57s2.64-1.12,2.81-2.57H236.65z"/>
		<path class="st7" d="M242.31,176.26c0.18,1.45,1.37,2.57,2.81,2.57c1.45,0,2.64-1.12,2.81-2.57H242.31z"/>
	</g>
</g>
<g>
	<rect x="117.16" y="163.36" class="st13" width="63.27" height="64.13"/>
	<rect x="117.16" y="223.99" class="st17" width="63.27" height="3.5"/>
	<g>
		<g>
			<rect x="123.43" y="182.74" class="st2" width="49.55" height="44.75"/>
			<rect x="126.49" y="185.5" class="st18" width="43.43" height="39.22"/>
			<g class="st19">
				<polygon class="st2" points="136.2,185.5 126.52,197.09 126.52,200.26 138.77,185.5 				"/>
				<polygon class="st2" points="141.26,185.5 126.52,203.27 126.52,209.1 146.09,185.5 				"/>
				<polygon class="st2" points="148.22,185.5 126.52,212.08 126.52,223.52 157.13,185.5 				"/>
				<polygon class="st2" points="137.9,224.73 169.39,185.5 160.47,185.5 128.35,224.73 				"/>
				<polygon class="st2" points="142.59,224.73 169.92,190.87 169.92,188.53 140.39,224.73 				"/>
				<polygon class="st2" points="156.38,224.73 169.92,207.1 169.92,202.79 152.08,224.73 				"/>
				<polygon class="st2" points="163.52,224.73 169.92,216.39 169.92,213.95 161.35,224.73 				"/>
				<polygon class="st2" points="148.98,224.73 169.92,198.73 169.92,196.4 146.78,224.73 				"/>
			</g>
		</g>
		<g>
			<g>
				<rect x="124.69" y="187.38" class="st15" width="47.59" height="2.24"/>
				<rect x="123.48" y="176.36" class="st15" width="50.01" height="10.9"/>
			</g>
			<g>
				<rect x="123.37" y="183.21" class="st16" width="4.18" height="9.52"/>
				<rect x="127.55" y="183.21" class="st2" width="4.18" height="9.52"/>
				<rect x="131.73" y="183.21" class="st16" width="4.18" height="9.52"/>
				<rect x="135.9" y="183.21" class="st2" width="4.18" height="9.52"/>
				<rect x="140.08" y="183.21" class="st16" width="4.18" height="9.52"/>
				<rect x="144.26" y="183.21" class="st2" width="4.18" height="9.52"/>
				<rect x="148.43" y="183.21" class="st16" width="4.18" height="9.52"/>
				<rect x="152.61" y="183.21" class="st2" width="4.18" height="9.52"/>
				<rect x="156.78" y="183.21" class="st16" width="4.18" height="9.52"/>
				<rect x="160.96" y="183.21" class="st2" width="4.18" height="9.52"/>
				<rect x="165.14" y="183.21" class="st16" width="4.18" height="9.52"/>
				<rect x="169.31" y="183.21" class="st2" width="4.18" height="9.52"/>
				<path class="st15" d="M123.39,192.73c0.13,1.07,1.01,1.9,2.07,1.9c1.07,0,1.94-0.83,2.07-1.9H123.39z"/>
				<path class="st7" d="M127.56,192.73c0.13,1.07,1.01,1.9,2.07,1.9c1.07,0,1.95-0.83,2.07-1.9H127.56z"/>
				<path class="st15" d="M131.74,192.73c0.13,1.07,1.01,1.9,2.07,1.9c1.07,0,1.94-0.83,2.07-1.9H131.74z"/>
				<path class="st7" d="M135.92,192.73c0.13,1.07,1.01,1.9,2.07,1.9c1.07,0,1.95-0.83,2.07-1.9H135.92z"/>
				<path class="st15" d="M140.09,192.73c0.13,1.07,1.01,1.9,2.07,1.9c1.07,0,1.94-0.83,2.07-1.9H140.09z"/>
				<path class="st7" d="M144.27,192.73c0.13,1.07,1.01,1.9,2.07,1.9c1.07,0,1.94-0.83,2.07-1.9H144.27z"/>
				<path class="st15" d="M148.45,192.73c0.13,1.07,1.01,1.9,2.07,1.9c1.07,0,1.95-0.83,2.07-1.9H148.45z"/>
				<path class="st7" d="M152.62,192.73c0.13,1.07,1.01,1.9,2.07,1.9c1.07,0,1.94-0.83,2.07-1.9H152.62z"/>
				<path class="st15" d="M156.8,192.73c0.13,1.07,1.01,1.9,2.07,1.9c1.07,0,1.94-0.83,2.07-1.9H156.8z"/>
				<path class="st7" d="M160.98,192.73c0.13,1.07,1.01,1.9,2.07,1.9c1.07,0,1.94-0.83,2.07-1.9H160.98z"/>
				<path class="st15" d="M165.15,192.73c0.13,1.07,1.01,1.9,2.07,1.9c1.07,0,1.94-0.83,2.07-1.9H165.15z"/>
				<path class="st7" d="M169.33,192.73c0.13,1.07,1.01,1.9,2.07,1.9c1.07,0,1.94-0.83,2.07-1.9H169.33z"/>
			</g>
		</g>
	</g>
	<rect x="175.51" y="163.36" class="st20" width="4.92" height="64.13"/>
</g>
<g>
	<rect x="247.75" y="163.36" class="st13" width="63.28" height="64.13"/>
	<rect x="247.75" y="223.99" class="st17" width="63.28" height="3.5"/>
	<g>
		<g>
			<rect x="255.2" y="182.74" class="st2" width="49.55" height="44.75"/>
			<rect x="258.26" y="185.5" class="st18" width="43.43" height="39.22"/>
			<g class="st19">
				<polygon class="st2" points="291.97,185.5 301.66,197.09 301.66,200.26 289.41,185.5 				"/>
				<polygon class="st2" points="286.92,185.5 301.66,203.27 301.66,209.1 282.09,185.5 				"/>
				<polygon class="st2" points="279.96,185.5 301.66,212.08 301.66,223.52 271.04,185.5 				"/>
				<polygon class="st2" points="290.28,224.73 258.79,185.5 267.71,185.5 299.83,224.73 				"/>
				<polygon class="st2" points="285.59,224.73 258.26,190.87 258.26,188.53 287.79,224.73 				"/>
				<polygon class="st2" points="271.79,224.73 258.26,207.1 258.26,202.79 276.1,224.73 				"/>
				<polygon class="st2" points="264.66,224.73 258.26,216.39 258.26,213.95 266.83,224.73 				"/>
				<polygon class="st2" points="279.2,224.73 258.26,198.73 258.26,196.4 281.4,224.73 				"/>
			</g>
		</g>
		<g>
			<g>
				<rect x="255.9" y="187.38" class="st15" width="47.59" height="2.24"/>
				<rect x="254.69" y="176.36" class="st15" width="50.01" height="10.9"/>
			</g>
			<g>
				<rect x="300.63" y="183.21" class="st16" width="4.18" height="9.52"/>
				<rect x="296.45" y="183.21" class="st2" width="4.18" height="9.52"/>
				<rect x="292.28" y="183.21" class="st16" width="4.18" height="9.52"/>
				<rect x="288.1" y="183.21" class="st2" width="4.18" height="9.52"/>
				<rect x="283.92" y="183.21" class="st16" width="4.18" height="9.52"/>
				<rect x="279.75" y="183.21" class="st2" width="4.18" height="9.52"/>
				<rect x="275.57" y="183.21" class="st16" width="4.18" height="9.52"/>
				<rect x="271.39" y="183.21" class="st2" width="4.18" height="9.52"/>
				<rect x="267.22" y="183.21" class="st16" width="4.18" height="9.52"/>
				<rect x="263.04" y="183.21" class="st2" width="4.18" height="9.52"/>
				<rect x="258.86" y="183.21" class="st16" width="4.18" height="9.52"/>
				<rect x="254.69" y="183.21" class="st2" width="4.18" height="9.52"/>
				<path class="st15" d="M304.79,192.73c-0.13,1.07-1.01,1.9-2.07,1.9c-1.07,0-1.94-0.83-2.07-1.9H304.79z"/>
				<path class="st7" d="M300.61,192.73c-0.13,1.07-1.01,1.9-2.07,1.9c-1.07,0-1.94-0.83-2.07-1.9H300.61z"/>
				<path class="st15" d="M296.44,192.73c-0.13,1.07-1.01,1.9-2.07,1.9c-1.07,0-1.94-0.83-2.07-1.9H296.44z"/>
				<path class="st7" d="M292.26,192.73c-0.13,1.07-1.01,1.9-2.07,1.9c-1.07,0-1.94-0.83-2.07-1.9H292.26z"/>
				<path class="st15" d="M288.09,192.73c-0.13,1.07-1.01,1.9-2.07,1.9c-1.07,0-1.94-0.83-2.07-1.9H288.09z"/>
				<path class="st7" d="M283.91,192.73c-0.13,1.07-1.01,1.9-2.07,1.9c-1.07,0-1.95-0.83-2.07-1.9H283.91z"/>
				<path class="st15" d="M279.73,192.73c-0.13,1.07-1.01,1.9-2.07,1.9c-1.07,0-1.94-0.83-2.07-1.9H279.73z"/>
				<path class="st7" d="M275.56,192.73c-0.13,1.07-1.01,1.9-2.07,1.9c-1.07,0-1.94-0.83-2.07-1.9H275.56z"/>
				<path class="st15" d="M271.38,192.73c-0.13,1.07-1.01,1.9-2.07,1.9s-1.94-0.83-2.07-1.9H271.38z"/>
				<path class="st7" d="M267.2,192.73c-0.13,1.07-1.01,1.9-2.07,1.9c-1.07,0-1.95-0.83-2.07-1.9H267.2z"/>
				<path class="st15" d="M263.03,192.73c-0.13,1.07-1.01,1.9-2.07,1.9c-1.07,0-1.94-0.83-2.07-1.9H263.03z"/>
				<path class="st7" d="M258.85,192.73c-0.13,1.07-1.01,1.9-2.07,1.9c-1.07,0-1.94-0.83-2.07-1.9H258.85z"/>
			</g>
		</g>
	</g>
	<rect x="247.75" y="163.36" class="st20" width="4.92" height="64.13"/>
</g>
<g>
	<rect x="191.92" y="183.09" class="st2" width="44.32" height="44.4"/>
	<rect x="195.04" y="186.15" class="st18" width="38.09" height="41.34"/>
	<g class="st19">
		<polygon class="st2" points="205.44,186.22 195.13,198.54 195.13,201.92 208.17,186.22 		"/>
		<polygon class="st2" points="210.82,186.22 195.13,205.13 195.13,211.33 215.95,186.22 		"/>
		<polygon class="st2" points="218.22,186.22 195.13,214.51 195.13,226.68 227.72,186.22 		"/>
		<polygon class="st2" points="207.62,227.49 233.04,195.83 233.04,186.22 231.27,186.22 197.46,227.49 		"/>
		<polygon class="st2" points="212.62,227.49 233.04,202.18 233.04,199.58 210.28,227.49 		"/>
		<polygon class="st2" points="227.28,227.49 233.04,219.98 233.04,214.79 222.72,227.49 		"/>
		<polygon class="st2" points="219.42,227.49 233.04,210.57 233.04,207.94 217.08,227.49 		"/>
	</g>
	<rect x="212.22" y="183.09" class="st2" width="3.73" height="44.4"/>
</g>
<g>
	<rect x="113.85" y="158.04" class="st21" width="66.58" height="5.32"/>
	<rect x="115.86" y="152.72" class="st22" width="64.58" height="5.32"/>
</g>
<g>
	<rect x="248.11" y="158.04" class="st21" width="66.58" height="5.32"/>
	<rect x="248.11" y="152.72" class="st22" width="64.58" height="5.32"/>
</g>
<g>
	<rect x="180.43" y="148.76" class="st21" width="69.53" height="5.32"/>
	<rect x="182.91" y="143.44" class="st22" width="64.58" height="5.32"/>
</g>
<path class="st16" d="M246.15,125.4c0,11.62-14.27,21.03-31.88,21.03s-31.89-9.42-31.89-21.03c0-11.62,14.28-21.03,31.89-21.03
	S246.15,113.79,246.15,125.4z"/>
<path class="st23" d="M245.21,122.29c1.14,10.81-11.23,21.09-27.62,22.97c-16.39,1.87-30.6-5.37-31.73-16.19
	c-1.14-10.81,11.23-21.09,27.62-22.97C229.86,104.23,244.07,111.47,245.21,122.29z"/>
<path class="st7" d="M245.21,122.29c-0.94-8.91-10.75-15.39-23.35-16.35c0.58,0.54,1.14,1.12,1.67,1.73
	c5.71,6.61,7.79,16.11,3.9,24.29c-4.45,9.37-13.89,12.37-23.36,11.66c-2.21-0.16-4.38-0.48-6.49-0.97
	c5.53,2.41,12.54,3.46,20.02,2.6C233.98,143.38,246.34,133.1,245.21,122.29z"/>
<g>
	<path class="st2" d="M188.95,132.69c2.68,7.38,11.48,9.47,18.27,9.55c1.12,0.01,1.12-1.8,0-1.82c-5.89-0.07-14.23-1.71-16.59-8.22
		C190.23,131.12,188.55,131.59,188.95,132.69L188.95,132.69z"/>
</g>
<g>
	<g>
		<path class="st24" d="M307.33,203.31c0,0.87,0.68,1.57,1.51,1.57c0.83,0,1.51-0.7,1.51-1.57c0-0.87-0.67-1.57-1.51-1.57
			C308,201.73,307.33,202.44,307.33,203.31z"/>
	</g>
	<g>
		<path class="st25" d="M307.91,203.31c0,0.53,0.41,0.96,0.92,0.96c0.51,0,0.92-0.43,0.92-0.96c0-0.53-0.41-0.96-0.92-0.96
			C308.32,202.34,307.91,202.77,307.91,203.31z"/>
	</g>
	<g>
		<path class="st26" d="M300.74,223.3h-24.38c-0.3,0-0.56-0.19-0.67-0.48l-5.61-15.32c-0.08-0.23-0.06-0.49,0.08-0.69
			c0.13-0.2,0.35-0.32,0.59-0.32h33.58c0.22,0,0.43,0.11,0.56,0.29c0.14,0.18,0.18,0.42,0.13,0.64l-3.58,15.32
			C301.36,223.06,301.07,223.3,300.74,223.3z M276.86,221.81h23.32l3.23-13.83h-31.62L276.86,221.81z"/>
	</g>
	<g>
		<path class="st26" d="M299,231.72L299,231.72l-23.08-0.01c-0.4,0-0.72-0.34-0.72-0.75c0-0.41,0.32-0.75,0.72-0.75l0,0l22.52,0.01
			l6.05-25.41c0.22-0.94,1.18-2.24,2.38-2.24c0.77,0,1.75-0.02,1.75-0.02l0.02,1.5c0,0-0.99,0.02-1.77,0.02
			c-0.33,0-0.87,0.6-0.99,1.11l-6.18,25.97C299.61,231.49,299.33,231.72,299,231.72z"/>
	</g>
	<g>
		<path class="st26" d="M303.44,211.68h-31.8c-0.3,0-0.54-0.25-0.54-0.56c0-0.31,0.24-0.56,0.54-0.56h31.8
			c0.3,0,0.54,0.25,0.54,0.56C303.98,211.43,303.73,211.68,303.44,211.68z"/>
	</g>
	<g>
		<path class="st26" d="M296.8,223.11c-0.04,0-0.08,0-0.13-0.02c-0.29-0.07-0.47-0.37-0.4-0.67l3.69-15.98
			c0.07-0.3,0.36-0.49,0.65-0.41c0.29,0.07,0.47,0.37,0.4,0.67l-3.69,15.98C297.26,222.94,297.04,223.11,296.8,223.11z"/>
	</g>
	<g>
		<path class="st26" d="M292.27,223.11c-0.04,0-0.08,0-0.13-0.02c-0.29-0.07-0.47-0.37-0.4-0.67l3.69-15.98
			c0.07-0.3,0.36-0.49,0.65-0.41c0.29,0.07,0.47,0.37,0.4,0.67l-3.69,15.98C292.73,222.94,292.51,223.11,292.27,223.11z"/>
	</g>
	<g>
		<path class="st26" d="M287.74,223.11c-0.04,0-0.08,0-0.12-0.02c-0.29-0.07-0.47-0.37-0.4-0.67l3.69-15.98
			c0.07-0.3,0.36-0.49,0.65-0.41c0.29,0.07,0.47,0.37,0.4,0.67l-3.69,15.98C288.21,222.94,287.99,223.11,287.74,223.11z"/>
	</g>
	<g>
		<path class="st26" d="M283.22,223.11c-0.04,0-0.08,0-0.13-0.02c-0.29-0.07-0.47-0.37-0.4-0.67l3.69-15.98
			c0.07-0.3,0.36-0.49,0.65-0.41c0.29,0.07,0.47,0.37,0.4,0.67l-3.69,15.98C283.69,222.94,283.46,223.11,283.22,223.11z"/>
	</g>
	<g>
		<path class="st26" d="M278.7,223.11c-0.04,0-0.08,0-0.13-0.02c-0.29-0.07-0.47-0.37-0.4-0.67l3.69-15.98
			c0.07-0.3,0.36-0.49,0.65-0.41c0.29,0.07,0.47,0.37,0.4,0.67l-3.69,15.98C279.16,222.94,278.94,223.11,278.7,223.11z"/>
	</g>
	<g>
		<path class="st26" d="M275.07,219.22c-0.04,0-0.08,0-0.13-0.01c-0.29-0.07-0.47-0.38-0.4-0.68l2.79-12.09
			c0.07-0.3,0.36-0.49,0.65-0.41c0.29,0.07,0.47,0.37,0.4,0.67l-2.79,12.09C275.53,219.05,275.31,219.22,275.07,219.22z"/>
	</g>
	<g>
		<path class="st26" d="M272.38,211.27c-0.04,0-0.09-0.01-0.13-0.01c-0.29-0.07-0.47-0.38-0.4-0.68l0.96-4.14
			c0.07-0.3,0.36-0.49,0.65-0.41c0.29,0.07,0.47,0.37,0.4,0.67l-0.96,4.14C272.84,211.1,272.62,211.27,272.38,211.27z"/>
	</g>
	<g>
		<path class="st26" d="M302.83,215.45h-29.66c-0.3,0-0.54-0.25-0.54-0.56c0-0.31,0.24-0.56,0.54-0.56h29.66
			c0.3,0,0.54,0.25,0.54,0.56C303.36,215.2,303.12,215.45,302.83,215.45z"/>
	</g>
	<g>
		<path class="st26" d="M301.93,219.22h-27.39c-0.3,0-0.54-0.25-0.54-0.56s0.24-0.56,0.54-0.56h27.39c0.3,0,0.54,0.25,0.54,0.56
			S302.23,219.22,301.93,219.22z"/>
	</g>
	<g>
		<polygon class="st26" points="275.92,230.21 299.64,228.25 299,230.97 275.92,230.97 		"/>
	</g>
	<g>
		<path class="st27" d="M276.19,234.19c0,1.61,1.25,2.92,2.8,2.92c1.55,0,2.8-1.31,2.8-2.92c0-1.61-1.25-2.92-2.8-2.92
			C277.45,231.26,276.19,232.57,276.19,234.19z"/>
	</g>
	<g>
		<path class="st28" d="M277.31,234.19c0,0.97,0.75,1.75,1.68,1.75c0.93,0,1.68-0.78,1.68-1.75c0-0.97-0.75-1.75-1.68-1.75
			C278.07,232.43,277.31,233.22,277.31,234.19z"/>
	</g>
	<g>
		<path class="st26" d="M277.91,234.97c0.28,0.69,1.57,1.06,2.27,0c0.71-1.06,2.31-3.9,2.31-3.9l-5.75,0.19
			C276.74,231.26,277.63,234.29,277.91,234.97z"/>
	</g>
	<g>
		<path class="st29" d="M278.03,234.19c0,0.55,0.43,1,0.96,1c0.53,0,0.96-0.45,0.96-1c0-0.55-0.43-1.01-0.96-1.01
			C278.46,233.18,278.03,233.63,278.03,234.19z"/>
	</g>
	<g>
		<path class="st30" d="M278.4,234.19c0,0.34,0.27,0.62,0.59,0.62c0.33,0,0.59-0.28,0.59-0.62c0-0.34-0.26-0.62-0.59-0.62
			C278.67,233.57,278.4,233.84,278.4,234.19z"/>
	</g>
	<g>
		<path class="st27" d="M292.81,234.19c0,1.61,1.25,2.92,2.8,2.92c1.55,0,2.8-1.31,2.8-2.92c0-1.61-1.25-2.92-2.8-2.92
			C294.07,231.26,292.81,232.57,292.81,234.19z"/>
	</g>
	<g>
		<path class="st28" d="M293.93,234.19c0,0.97,0.75,1.75,1.68,1.75c0.93,0,1.68-0.78,1.68-1.75c0-0.97-0.75-1.75-1.68-1.75
			C294.69,232.43,293.93,233.22,293.93,234.19z"/>
	</g>
	<g>
		<path class="st26" d="M294.53,234.97c0.28,0.69,1.57,1.06,2.27,0c0.7-1.06,2.31-3.9,2.31-3.9l-5.75,0.19
			C293.36,231.26,294.25,234.29,294.53,234.97z"/>
	</g>
	<g>
		<path class="st29" d="M294.65,234.19c0,0.55,0.43,1,0.96,1s0.96-0.45,0.96-1c0-0.55-0.43-1.01-0.96-1.01
			S294.65,233.63,294.65,234.19z"/>
	</g>
	<g>
		<path class="st30" d="M295.02,234.19c0,0.34,0.26,0.62,0.59,0.62c0.33,0,0.59-0.28,0.59-0.62c0-0.34-0.26-0.62-0.59-0.62
			C295.29,233.57,295.02,233.84,295.02,234.19z"/>
	</g>
</g>
<g>
	<path class="st31" d="M171.81,295.59c0,2.97-14.6,5.37-32.62,5.37c-18.02,0-32.62-2.4-32.62-5.37c0-2.97,14.6-5.37,32.62-5.37
		C157.2,290.21,171.81,292.62,171.81,295.59z"/>
	<g>
		<path class="st2" d="M119.33,297.53c6.1-1.59,11.32-2.71,12.52-3.54c1.2-0.82-0.49-5.45-0.49-5.45l-6.11-0.56
			c0,0-7.41,3.75-10.06,4.27C110.4,293.2,114.43,298.81,119.33,297.53z"/>
		<g>
			<g>
				<path class="st32" d="M120.93,215.28c0,0-0.61-2.09-0.74-2.99c-0.15-1.09-0.39-1.77-0.74-2.77c-0.34-1-1.82-1.59-2.21-2.31
					c-0.39-0.72-0.4-4.21-0.4-4.21l-3.44,0.28l1.27,4.72c0,0-0.87,4.44-0.34,6.48c0.48,0.15,4.11-0.27,4.11-0.27l-0.1-1.09
					l0.42,0.29c0,0,0.67,1.12,0.97,1.71C120.35,216.26,120.93,215.28,120.93,215.28z"/>
			</g>
			<path class="st32" d="M115.56,220.32c-0.04,0.6-0.8,0.3-0.86-0.53c-0.06-0.83-0.45-5.85-0.45-5.85l1.45,0.03
				C115.7,213.98,115.61,219.72,115.56,220.32z"/>
			<path class="st32" d="M116.81,220.67c-0.05,0.64-0.92,0.32-1-0.56c-0.07-0.88-0.52-6.23-0.52-6.23l1.67,0.04
				C116.96,213.92,116.86,220.03,116.81,220.67z"/>
			<path class="st32" d="M117.94,220.59c-0.05,0.64-0.92,0.32-1-0.56c-0.07-0.88-0.52-6.23-0.52-6.23l1.67,0.04
				C118.09,213.84,117.99,219.95,117.94,220.59z"/>
			<path class="st32" d="M118.86,219.52c0.01,0.64-0.73,0.39-0.86-0.48c-0.13-0.87-0.9-6.17-0.9-6.17l1.38-0.09
				C118.47,212.78,118.85,218.88,118.86,219.52z"/>
		</g>
		<path class="st33" d="M119.33,296.25c6.1-1.59,11.32-2.71,12.52-3.53c1.2-0.82,0-6.13,0-6.13l-6.6,0.12c0,0-6.94,4.31-9.59,4.84
			C110.87,292.49,114.43,297.53,119.33,296.25z"/>
		<path class="st34" d="M120.37,292.22c1-0.4,4.94-2.93,6.14-3.75c1.2-0.83-1.26-1.76-1.26-1.76s-3.85,2.39-6.91,3.83
			C117.3,291.03,119.37,292.62,120.37,292.22z"/>
		<path class="st35" d="M139.18,220.62c-1.57,2.59-3.92,13.9-4.36,28.86c-0.49,16.14,0.45,38.76-1.12,39.7
			c-2.64,1.59-8.85-0.82-9.41-2.59c0.11-3.41,3.03-51.54,1.52-71.51C134.59,209.72,142.74,214.72,139.18,220.62z"/>
		<path class="st7" d="M132.91,258.2c0.22-4.24-0.15-19.16,0.47-24.81c0.33-2.97,0.6-6.9,2.09-9.52c0.43-0.75,0.84-1.43,1.53-1.94
			c0.56-0.41,3.15-1.49,1.61-1.31c0.21-0.02,0.41-0.06,0.61-0.1c-0.02,0.03-0.03,0.06-0.05,0.1c-1.57,2.59-3.92,13.9-4.36,28.86
			c-0.49,16.14,0.45,38.76-1.12,39.7c-1.72,1.03-4.93,0.37-7.13-0.7C134.94,285.16,132.55,264.91,132.91,258.2z"/>
		<path class="st2" d="M159.81,297.53c-6.1-1.59-11.32-2.71-12.52-3.54c-1.2-0.82,0.49-5.45,0.49-5.45l6.1-0.56
			c0,0,7.41,3.75,10.07,4.27C168.74,293.2,164.71,298.81,159.81,297.53z"/>
		<path class="st33" d="M159.81,296.25c-6.1-1.59-11.32-2.71-12.52-3.53c-1.2-0.82,0-6.13,0-6.13l6.6,0.12c0,0,6.94,4.31,9.6,4.84
			C168.27,292.49,164.71,297.53,159.81,296.25z"/>
		<path class="st34" d="M158.77,292.22c-1-0.4-4.95-2.93-6.14-3.75c-1.2-0.83,1.26-1.76,1.26-1.76s3.85,2.39,6.91,3.83
			C161.85,291.03,159.77,292.62,158.77,292.22z"/>
		<path class="st35" d="M139.96,220.62c1.57,2.59,3.92,13.9,4.37,28.86c0.48,16.14-0.45,38.76,1.12,39.7
			c2.64,1.59,8.84-0.82,9.4-2.59c-0.11-3.41-3.03-51.54-1.52-71.51C144.55,209.72,136.4,214.72,139.96,220.62z"/>
		<path class="st7" d="M146.23,258.2c-0.22-4.24,0.15-19.16-0.47-24.81c-0.33-2.97-0.6-6.9-2.09-9.52
			c-0.43-0.75-0.84-1.43-1.53-1.94c-0.56-0.41-3.15-1.49-1.61-1.31c-0.21-0.02-0.41-0.06-0.62-0.1c0.02,0.03,0.03,0.06,0.05,0.1
			c1.57,2.59,3.92,13.9,4.37,28.86c0.48,16.14-0.45,38.76,1.12,39.7c1.72,1.03,4.93,0.37,7.13-0.7
			C144.2,285.16,146.59,264.91,146.23,258.2z"/>
		<path class="st35" d="M125.93,217.08c-0.41-3.42-0.91-9.54-0.47-11.02c0.44-1.47,26.87-4.91,27.56-0.82
			c0.27,0.01,0.75,6.06,0.27,10.42C152.59,222.1,126.61,222.74,125.93,217.08z"/>
		<path class="st36" d="M154.12,206.48c0,0-5.36,2.86-15.02,2.86c-9.66,0-14.47-1.62-14.47-1.62s1.02-11.47,0.2-21.82
			c-0.79-10.03-3.07-23.6-1.88-24.88c1.17-1.26,2.83-2.54,6.55-3.56c3.98-1.09,7.87-0.86,7.87-0.86s3.51-0.6,7.22,0
			c4.14,0.67,6.63,1.99,7.49,3.16c0.79,1.08-0.55,13.66,0,24.47C152.66,195.67,154.12,206.48,154.12,206.48z"/>
		<path class="st32" d="M137.05,161.99c0,0-7.92-3.36-6.61-4.33c1.74-1.29,3.26-4.11,2.5-10.38c-1.09-8.96,7.39-9.63,7.8-1.59
			c-0.21,7.94,1.4,10.48,2.92,11.4C144.61,157.66,137.05,161.99,137.05,161.99z"/>
		<path class="st37" d="M132.92,153.08c1.79-0.05,5.81-0.82,7.26-2.18c1.32-1.25-0.15-1.89,0.54-3.51c-0.01-0.54,0-1.1,0.01-1.71
			c-0.41-8.04-8.89-7.37-7.8,1.59C133.23,149.69,133.19,151.58,132.92,153.08z"/>
		<path class="st2" d="M142.45,155.47c0,0-1.7,1.23-3.72,2.23c-0.58,0.29-1.68,3.42-1.68,3.42s-1.55-3.15-1.99-3.32
			c-2.21-0.86-3.23-2.33-3.23-2.33l-2.32,1.99c0,0,2.91,3.15,5.59,4.41c0.67,0.31,1.32,8.92,1.92,8.92c0.71,0,1.39-8.57,2.05-8.86
			c3.16-1.36,5.53-5.33,5.53-5.33L142.45,155.47z"/>
		<path class="st32" d="M155.31,124.68c-0.64-0.11-2.05,0-2.7,0.87c0.06-2.29,0.8-5.76,0.84-8.31c0.13-8.87-8.99-13.36-16.82-12.73
			c-7.83-0.63-16.95,3.86-16.82,12.73c0.04,2.55,0.78,6.03,0.84,8.31c-0.65-0.87-2.07-0.98-2.7-0.87c-2.03,0.35-3.07,2.76-2.24,6.02
			c1.48,5.83,5.58,4.01,5.64,3.98c0.34,3.45,4.53,16.33,15.22,16.88c0.02,0,0.04,0,0.06,0c0.02,0,0.04,0,0.06,0
			c10.7-0.55,14.88-13.44,15.22-16.88c0.06,0.02,4.16,1.85,5.64-3.98C158.38,127.44,157.35,125.03,155.31,124.68z"/>
		<path class="st38" d="M151.41,131.06c2.64-1.33,0.52-6.42,4.14-6.32c0.49-1.92,1.02-11.24-1.31-13.86
			c3.4-2.62,1.21-8.36-0.28-8.99c-1.02,6.32-20.76-4.44-27.5-2.33c-1.7,0.53-2.54,3.04-2.9,4.23c-3.06-1.17-4.35,0.33-5.25,3.98
			c-0.51,2.06-2.9,7.77-0.37,16.91c4.01-0.35,1.67,4.89,4.66,6.6c-2.1-4.74,4.8-7.34,0.51-14.58c5.31,4.23,12.43,4.63,17.29,2.87
			c-6.1-0.82-8.36-5.54-8.36-5.54s2.27,3.5,6.25,2.76c4.88-0.91,4.41-3.63,8.96-1c3.69,2.13,3.31,6.16,1.44,8.89
			C152.79,127.15,151.41,131.06,151.41,131.06z"/>
		<g>
			<path class="st38" d="M131.82,123.86c-0.19-0.12-0.9-0.48-1.69-0.45c-2.73,0.1-3.66,2.54-3.66,2.54s0.99-1.27,3.51-1.27
				c0.93,0,1.64,0.4,1.92,0.39C132.17,125.06,132.01,123.98,131.82,123.86z"/>
			<path class="st38" d="M140.47,123.86c0.19-0.12,0.9-0.48,1.69-0.45c2.73,0.1,3.66,2.54,3.66,2.54s-0.99-1.27-3.51-1.27
				c-0.93,0-1.64,0.4-1.92,0.39C140.12,125.06,140.28,123.98,140.47,123.86z"/>
			<path class="st2" d="M140.55,139.42c0,0-0.78,3-4.59,3c-3.72,0-4.58-2.73-4.58-2.73s1.88,0.51,4.42,0.51
				C138.34,140.2,140.55,139.42,140.55,139.42z"/>
			<g>
				<path class="st39" d="M130.45,139.07c0,0,0.13,0.15,0.43,0.24c0.29,0.11,0.73,0.18,1.26,0.25c0.53,0.07,1.16,0.09,1.83,0.11
					c0.67,0.02,1.39,0.03,2.1,0.01c1.43-0.03,2.86-0.11,3.92-0.27c0.53-0.09,0.96-0.18,1.25-0.32c0.29-0.12,0.4-0.29,0.4-0.29
					s-0.02,0.04-0.07,0.12c-0.05,0.07-0.14,0.17-0.28,0.26c-0.27,0.18-0.7,0.38-1.23,0.52c-0.53,0.14-1.16,0.28-1.84,0.36
					c-0.68,0.09-1.41,0.13-2.13,0.15c-0.73,0.01-1.46-0.01-2.14-0.07c-0.68-0.06-1.31-0.17-1.85-0.28
					c-0.54-0.12-0.97-0.29-1.26-0.45c-0.14-0.08-0.25-0.17-0.3-0.23C130.48,139.11,130.45,139.07,130.45,139.07z"/>
			</g>
			<g>
				<path class="st39" d="M134.53,143.12c0,0,0.04,0.06,0.11,0.16c0.03,0.06,0.09,0.09,0.14,0.14c0.04,0.05,0.14,0.08,0.21,0.13
					c0.32,0.17,0.82,0.23,1.3,0.19c0.24-0.02,0.48-0.07,0.7-0.13c0.21-0.07,0.41-0.16,0.55-0.27c0.15-0.1,0.26-0.23,0.32-0.33
					c0.06-0.1,0.1-0.17,0.1-0.17s0,0.07-0.01,0.2c0,0.07-0.03,0.14-0.06,0.23c-0.03,0.09-0.08,0.18-0.15,0.27
					c-0.13,0.19-0.35,0.35-0.59,0.47c-0.25,0.12-0.53,0.19-0.82,0.22c-0.29,0.01-0.58,0-0.84-0.09c-0.26-0.07-0.49-0.21-0.66-0.36
					c-0.08-0.09-0.15-0.15-0.19-0.25c-0.04-0.09-0.09-0.16-0.09-0.22C134.54,143.19,134.53,143.12,134.53,143.12z"/>
			</g>
			<path class="st38" d="M143.52,129.93c0,0.62-0.49,1.13-1.09,1.13l0,0c-0.6,0-1.08-0.51-1.08-1.13v-1.64
				c0-0.62,0.49-1.13,1.08-1.13l0,0c0.6,0,1.09,0.51,1.09,1.13V129.93z"/>
			<path class="st38" d="M130.99,129.93c0,0.62-0.49,1.13-1.08,1.13l0,0c-0.6,0-1.08-0.51-1.08-1.13v-1.64
				c0-0.62,0.49-1.13,1.08-1.13l0,0c0.6,0,1.08,0.51,1.08,1.13V129.93z"/>
			<path class="st2" d="M130.76,128.02c0,0.25-0.19,0.44-0.43,0.44c-0.23,0-0.43-0.2-0.43-0.44c0-0.25,0.19-0.44,0.43-0.44
				C130.57,127.58,130.76,127.77,130.76,128.02z"/>
			<path class="st2" d="M142.46,128.02c0,0.25-0.19,0.44-0.43,0.44c-0.23,0-0.43-0.2-0.43-0.44c0-0.25,0.19-0.44,0.43-0.44
				C142.27,127.58,142.46,127.77,142.46,128.02z"/>
			<path class="st2" d="M130.38,128.86c0,0.13-0.1,0.24-0.23,0.24c-0.13,0-0.23-0.11-0.23-0.24c0-0.14,0.1-0.24,0.23-0.24
				C130.27,128.62,130.38,128.73,130.38,128.86z"/>
			<path class="st2" d="M142.93,128.86c0,0.13-0.1,0.24-0.23,0.24c-0.13,0-0.23-0.11-0.23-0.24c0-0.14,0.1-0.24,0.23-0.24
				C142.82,128.62,142.93,128.73,142.93,128.86z"/>
			<path class="st40" d="M135.85,133.03c1.3,0,2.43,0.33,3.07,0.81c-0.08-0.91-1.42-1.64-3.07-1.64c-1.65,0-2.99,0.73-3.07,1.64
				C133.42,133.36,134.55,133.03,135.85,133.03z"/>
			<path class="st40" d="M119.67,131.03c0.26,0.45,0.25,0.98,0.03,1.42c0.63-0.43,0.88-1.22,0.56-1.79
				c-0.33-0.57-1.11-0.71-1.78-0.33C118.96,130.33,119.42,130.58,119.67,131.03z"/>
			<path class="st40" d="M154.03,131.03c-0.26,0.45-0.25,0.98-0.03,1.42c-0.63-0.43-0.89-1.22-0.56-1.79
				c0.33-0.57,1.11-0.71,1.78-0.33C154.74,130.33,154.29,130.58,154.03,131.03z"/>
			<path class="st40" d="M155.56,126.57c2.27,0.46,0.64,4.95,0.64,4.95s2.13-5.25-0.64-5.77c-1.63-0.31-2.27,3.11-2.27,3.11
				S154.29,126.31,155.56,126.57z"/>
			<path class="st40" d="M117.95,126.57c-2.28,0.46-0.64,4.95-0.64,4.95s-2.13-5.25,0.64-5.77c1.63-0.31,2.26,3.11,2.26,3.11
				S119.23,126.31,117.95,126.57z"/>
		</g>
		<path class="st36" d="M113.62,206.95l4.55-0.86c0,0,0.02-17.01,0.95-20.03c0.93-3.01,5.36-10.36,5.36-10.36s2.57-17.3-0.43-15.71
			c-3,1.59-10.34,20.66-11.1,23.96C112.19,187.24,113.62,206.95,113.62,206.95z"/>
		<path class="st36" d="M156.46,185.26c-0.93-3.01-5.36-10.36-5.36-10.36s-2.57-17.3,0.43-15.71c3,1.6,9.97,21.02,10.73,24.31
			C163.02,186.8,157.39,188.27,156.46,185.26z"/>
		<g>
			<g>
				<polygon class="st41" points="153.17,177.86 150.07,176.59 157.08,157.88 160.18,159.14 				"/>
				<polygon class="st42" points="151.62,177.23 150.07,176.59 157.08,157.88 158.63,158.51 				"/>
				<polygon class="st43" points="157.99,162.2 156.89,161.75 157.08,157.88 160.18,159.14 				"/>
				<polygon class="st43" points="152.25,173.54 153.35,173.99 153.17,177.86 150.07,176.59 				"/>
				<polygon class="st44" points="150.07,176.59 141.83,173.24 148.84,154.53 157.08,157.88 				"/>
				<polygon class="st2" points="154.68,160.85 148.43,158.3 148.74,157.45 155,160 				"/>
				<polygon class="st2" points="153.84,164.09 145.6,164.85 145.84,164.2 154.08,163.45 				"/>
				<polygon class="st2" points="152.43,167.87 144.19,168.63 144.43,167.98 152.67,167.23 				"/>
				<polygon class="st2" points="152.94,166.52 144.69,167.27 144.94,166.62 153.18,165.87 				"/>
				<polygon class="st2" points="153.44,165.16 145.2,165.91 145.45,165.27 153.69,164.51 				"/>
				<polygon class="st2" points="148.58,175.31 149.78,175.79 150.16,174.77 148.96,174.29 				"/>
			</g>
			<g>
				<polygon class="st41" points="150.06,176.84 146.74,176.54 148.41,156.52 151.73,156.82 				"/>
				<polygon class="st42" points="148.4,176.69 146.74,176.54 148.41,156.52 150.07,156.67 				"/>
				<polygon class="st43" points="150.45,160.4 149.28,160.29 148.41,156.52 151.73,156.82 				"/>
				<polygon class="st43" points="148.01,172.96 149.19,173.07 150.06,176.84 146.74,176.54 				"/>
				<polygon class="st44" points="146.74,176.54 137.94,175.74 139.61,155.72 148.41,156.52 				"/>
				<polygon class="st2" points="146.92,160.08 140.22,159.47 140.3,158.56 146.99,159.17 				"/>
				<polygon class="st2" points="146.99,163.44 139.28,166.58 139.34,165.89 147.04,162.75 				"/>
				<polygon class="st2" points="146.65,167.48 138.95,170.63 139,169.93 146.7,166.79 				"/>
				<polygon class="st2" points="146.77,166.03 139.07,169.17 139.12,168.48 146.83,165.34 				"/>
				<polygon class="st2" points="146.89,164.57 139.19,167.72 139.24,167.03 146.95,163.88 				"/>
				<polygon class="st2" points="144.97,175.74 146.25,175.86 146.34,174.76 145.06,174.65 				"/>
			</g>
			<g>
				<rect x="144.12" y="168.82" class="st45" width="5.23" height="2.74"/>
				<path class="st46" d="M148.07,154.47h-2.53c0,0-1.42,1-1.14,2.26c-0.28,0.74-0.75,1.65-0.75,2.72c0,3.16,0,11.62,0,11.62h6.16
					c0,0,0-8.42,0-11.62c0-1.04-0.45-1.93-0.68-2.66C149.33,155.56,148.07,154.47,148.07,154.47z"/>
				<rect x="145.64" y="159.72" class="st2" width="3.9" height="8.55"/>
				<path class="st47" d="M146.33,152.23c0-0.32,0.94-0.36,0.94,0c0,0.15,0,0.76,0,0.76h-0.94
					C146.33,152.99,146.33,152.44,146.33,152.23z"/>
				<path class="st48" d="M146,152.88c0-0.4,1.59-0.46,1.59,0c0,0.2,0,0.97,0,0.97H146C146,153.85,146,153.15,146,152.88z"/>
				<path class="st49" d="M146.75,156.74c-0.28-1.27,1.14-2.26,1.14-2.26h-2.34c0,0-1.42,1-1.14,2.26
					c-0.28,0.74-0.75,1.65-0.75,2.72c0,3.16,0,11.62,0,11.62H146c0,0,0-8.46,0-11.62C146,158.39,146.46,157.48,146.75,156.74z"/>
				<path class="st47" d="M145.45,153.44c0-0.29,2.7-0.34,2.7,0c0,0.21,0,1.03,0,1.03h-2.7
					C145.45,154.47,145.45,153.73,145.45,153.44z"/>
				<path class="st50" d="M146.26,153.22c-0.45,0.03-0.81,0.11-0.81,0.21c0,0.29,0,1.03,0,1.03h1.73
					C146.35,154.24,145.92,153.66,146.26,153.22z"/>
				<path class="st51" d="M145.83,154.27c0,0.02-0.04,0.04-0.08,0.04l0,0c-0.04,0-0.08-0.02-0.08-0.04v-0.81
					c0-0.02,0.03-0.04,0.08-0.04l0,0c0.04,0,0.08,0.02,0.08,0.04V154.27z"/>
				<path class="st51" d="M146.31,154.27c0,0.02-0.03,0.04-0.08,0.04l0,0c-0.04,0-0.08-0.02-0.08-0.04v-0.81
					c0-0.02,0.03-0.04,0.08-0.04l0,0c0.04,0,0.08,0.02,0.08,0.04V154.27z"/>
				<path class="st51" d="M146.79,154.27c0,0.02-0.03,0.04-0.08,0.04l0,0c-0.04,0-0.08-0.02-0.08-0.04v-0.81
					c0-0.02,0.03-0.04,0.08-0.04l0,0c0.04,0,0.08,0.02,0.08,0.04V154.27z"/>
				<path class="st51" d="M147.27,154.27c0,0.02-0.03,0.04-0.08,0.04l0,0c-0.04,0-0.08-0.02-0.08-0.04v-0.81
					c0-0.02,0.04-0.04,0.08-0.04l0,0c0.04,0,0.08,0.02,0.08,0.04V154.27z"/>
				<path class="st51" d="M147.75,154.27c0,0.02-0.03,0.04-0.08,0.04l0,0c-0.04,0-0.08-0.02-0.08-0.04v-0.81
					c0-0.02,0.03-0.04,0.08-0.04l0,0c0.04,0,0.08,0.02,0.08,0.04V154.27z"/>
			</g>
			<g>
				<polygon class="st52" points="138.95,170.69 139.47,173.05 143.31,172.13 142.78,169.76 				"/>
				<polygon class="st52" points="136.95,157.25 135.93,158.74 140.45,157.65 139.11,156.73 				"/>
				<polygon class="st53" points="143.49,171.34 138.97,172.43 135.93,158.74 140.45,157.65 				"/>
				<polygon class="st2" points="139.27,167.67 142.51,166.89 141.11,160.62 137.87,161.4 				"/>
				<path class="st54" d="M136.39,155.39c-0.12-0.53,2.31-1.21,2.44-0.59c0.08,0.38,0.42,1.89,0.42,1.89l-2.44,0.59
					C136.81,157.29,136.51,155.92,136.39,155.39z"/>
				<path class="st55" d="M137.03,154.82c-0.4,0.16-0.69,0.38-0.64,0.57c0.12,0.53,0.42,1.9,0.42,1.9l1.56-0.38
					C137.53,156.66,136.9,155.7,137.03,154.82z"/>
				<path class="st51" d="M137.1,156.95c0.01,0.04-0.02,0.08-0.05,0.09l0,0c-0.04,0.01-0.08-0.02-0.09-0.06l-0.32-1.42
					c-0.01-0.04,0.02-0.08,0.05-0.09l0,0c0.04-0.01,0.08,0.02,0.08,0.06L137.1,156.95z"/>
				<path class="st51" d="M137.54,156.85c0.01,0.04-0.01,0.08-0.05,0.09l0,0c-0.04,0.01-0.08-0.02-0.09-0.06l-0.32-1.42
					c-0.01-0.04,0.01-0.08,0.05-0.09l0,0c0.04-0.01,0.08,0.02,0.08,0.06L137.54,156.85z"/>
				<path class="st51" d="M137.97,156.74c0.01,0.04-0.01,0.08-0.05,0.09l0,0c-0.04,0.01-0.08-0.02-0.09-0.06l-0.32-1.42
					c-0.01-0.04,0.01-0.08,0.05-0.09l0,0c0.04-0.01,0.08,0.02,0.08,0.06L137.97,156.74z"/>
				<path class="st51" d="M138.4,156.64c0.01,0.04-0.01,0.08-0.05,0.09l0,0c-0.04,0.01-0.08-0.02-0.09-0.06l-0.32-1.42
					c-0.01-0.04,0.01-0.08,0.05-0.09l0,0c0.04-0.01,0.08,0.02,0.09,0.06L138.4,156.64z"/>
				<path class="st51" d="M138.83,156.53c0.01,0.04-0.02,0.08-0.05,0.09l0,0c-0.04,0.01-0.08-0.02-0.09-0.06l-0.32-1.42
					c-0.01-0.04,0.01-0.08,0.05-0.09l0,0c0.04-0.01,0.08,0.02,0.09,0.06L138.83,156.53z"/>
				<polygon class="st56" points="138.2,158.2 135.93,158.74 138.97,172.43 141.24,171.88 				"/>
			</g>
			<g>
				<polygon class="st52" points="139.05,171.79 138.65,174.19 142.53,174.9 142.93,172.51 				"/>
				<polygon class="st52" points="142.27,158.62 140.77,159.58 145.34,160.42 144.45,159.02 				"/>
				<polygon class="st53" points="143,174.25 138.43,173.41 140.77,159.58 145.34,160.42 				"/>
				<polygon class="st2" points="140.48,169.15 143.76,169.76 144.83,163.41 141.56,162.81 				"/>
				<path class="st54" d="M142.45,156.68c0.09-0.54,2.58-0.17,2.47,0.45c-0.07,0.39-0.32,1.92-0.32,1.92l-2.47-0.46
					C142.12,158.59,142.36,157.21,142.45,156.68z"/>
				<path class="st55" d="M143.26,156.42c-0.43-0.01-0.77,0.06-0.81,0.26c-0.09,0.54-0.32,1.91-0.32,1.91l1.58,0.29
					C143.02,158.31,142.81,157.18,143.26,156.42z"/>
				<path class="st51" d="M142.52,158.4c-0.01,0.04-0.04,0.07-0.08,0.06l0,0c-0.04-0.01-0.06-0.04-0.06-0.09l0.24-1.44
					c0.01-0.04,0.04-0.07,0.08-0.06l0,0c0.04,0.01,0.06,0.04,0.06,0.09L142.52,158.4z"/>
				<path class="st51" d="M142.96,158.48c-0.01,0.04-0.04,0.07-0.08,0.06l0,0c-0.04-0.01-0.06-0.05-0.06-0.09l0.24-1.44
					c0.01-0.04,0.04-0.07,0.08-0.06l0,0c0.04,0.01,0.06,0.05,0.06,0.09L142.96,158.48z"/>
				<path class="st51" d="M143.39,158.56c-0.01,0.04-0.04,0.07-0.08,0.06l0,0c-0.04-0.01-0.06-0.04-0.06-0.09l0.24-1.44
					c0.01-0.04,0.04-0.07,0.08-0.06l0,0c0.04,0.01,0.07,0.05,0.06,0.09L143.39,158.56z"/>
				<path class="st51" d="M143.83,158.65c-0.01,0.04-0.04,0.07-0.08,0.06l0,0c-0.04-0.01-0.07-0.04-0.06-0.09l0.24-1.44
					c0.01-0.04,0.04-0.07,0.08-0.06l0,0c0.04,0.01,0.07,0.04,0.06,0.08L143.83,158.65z"/>
				<path class="st51" d="M144.27,158.72c-0.01,0.04-0.04,0.07-0.08,0.06l0,0c-0.04-0.01-0.06-0.04-0.06-0.08l0.24-1.44
					c0.01-0.04,0.04-0.07,0.08-0.06l0,0c0.04,0.01,0.06,0.05,0.06,0.09L144.27,158.72z"/>
				<polygon class="st56" points="143.07,160 140.77,159.58 138.43,173.41 140.72,173.83 				"/>
			</g>
			<polygon class="st57" points="154.55,202.63 133.76,200.65 136.91,164.8 137.96,166.06 139.53,165.05 141.02,166.36 
				142.46,165.33 144.22,166.66 145.78,165.64 147.28,166.95 149.05,165.96 150.34,167.25 151.78,166.22 153.14,167.51 
				154.9,166.52 156.07,167.79 157.7,166.78 			"/>
			<path class="st58" d="M139.34,181.35c-0.7-5.14,0.16-10.73,2.49-15.57l-0.8,0.57l-1.5-1.31l-1.56,1.02l-1.05-1.27l-3.15,35.85
				l20.79,1.98l0.12-1.32C146.86,198.99,140.28,188.28,139.34,181.35z"/>
		</g>
		<g>
			<g>
				<path class="st32" d="M138.62,173.92c0.52,0.26,0.27,1.14,0.96,2.74c0.61,1.41,1.07,2.18,2.04,2.68c0.96,0.5,1.38,2.2,2.06,2.72
					c0.68,0.52,4.21,0.97,4.21,0.97l-0.58,3l-4.76-1.24c0,0-4.77,0.25-6.76-0.59c-0.09-0.54,0.97-4.34,0.97-4.34l0.23-0.54
					l1.34-0.14c0,0,0.41-1.4-0.1-1.88C137.15,176.29,138.1,173.66,138.62,173.92z"/>
			</g>
			<path class="st32" d="M134.93,182.62c-0.61-0.03-1.07,0.76-0.3,1.08c0.78,0.33,1.27,0.55,1.27,0.55l0.74-1.33
				C136.64,182.92,135.54,182.65,134.93,182.62z"/>
			<path class="st32" d="M134.56,181.3c-0.65-0.03-0.84,1.21,0.04,1.4c0.88,0.19,2.09,0.68,2.09,0.68l0.17-1.84
				C136.86,181.54,135.21,181.33,134.56,181.3z"/>
			<path class="st32" d="M134.7,180.05c-0.65-0.03-1.04,1.39-0.16,1.58c0.88,0.19,2.36,0.52,2.36,0.52l0.17-1.84
				C137.08,180.31,135.36,180.08,134.7,180.05z"/>
			<path class="st32" d="M135.66,179.18c-0.65-0.09-1.04,1.25-0.17,1.5c0.87,0.25,2.45,0.86,2.45,0.86l-0.07-2.31
				C137.86,179.23,136.3,179.27,135.66,179.18z"/>
		</g>
		<path class="st36" d="M142.98,185.42l0.76-4.36c0,0,12.73-0.29,15.76-0.07c3.82,0.27,3.97,7.57,0.41,7.52
			C156.66,188.45,142.98,185.42,142.98,185.42z"/>
	</g>
</g>
<g>
	<path class="st15" d="M196.23,131.05c0.19,0,0.37-0.03,0.55-0.1c0.18-0.07,0.34-0.19,0.48-0.35c0.14-0.16,0.26-0.37,0.34-0.63
		c0.09-0.26,0.13-0.58,0.13-0.95c0-0.41-0.1-0.8-0.29-1.18c-0.19-0.38-0.43-0.76-0.72-1.12c-0.29-0.37-0.6-0.74-0.94-1.1
		c-0.34-0.36-0.65-0.74-0.94-1.11c-0.29-0.38-0.53-0.77-0.72-1.17c-0.19-0.4-0.29-0.82-0.29-1.26c0-0.44,0.08-0.84,0.23-1.19
		c0.15-0.35,0.36-0.66,0.63-0.9c0.27-0.25,0.58-0.44,0.93-0.57c0.35-0.14,0.73-0.2,1.13-0.2c0.43,0,0.81,0.05,1.15,0.14
		c0.34,0.09,0.62,0.22,0.85,0.38c0.23,0.16,0.41,0.35,0.53,0.57c0.12,0.22,0.18,0.45,0.18,0.7c0,0.12-0.02,0.24-0.05,0.36
		c-0.03,0.12-0.08,0.24-0.15,0.34c-0.07,0.1-0.16,0.19-0.26,0.25c-0.11,0.07-0.23,0.1-0.37,0.1c-0.17,0-0.3-0.05-0.38-0.16
		c-0.08-0.11-0.14-0.24-0.18-0.4c-0.04-0.16-0.07-0.33-0.1-0.52c-0.03-0.19-0.07-0.36-0.13-0.52c-0.06-0.16-0.15-0.29-0.27-0.4
		c-0.12-0.11-0.3-0.16-0.53-0.16c-0.12,0-0.25,0.03-0.37,0.09c-0.12,0.06-0.23,0.15-0.33,0.26c-0.1,0.12-0.18,0.27-0.24,0.45
		c-0.06,0.18-0.09,0.4-0.09,0.65c0,0.29,0.06,0.57,0.17,0.85c0.12,0.27,0.27,0.55,0.46,0.81c0.19,0.27,0.41,0.54,0.65,0.8
		c0.24,0.27,0.49,0.54,0.74,0.81c0.25,0.27,0.5,0.55,0.74,0.84c0.24,0.29,0.46,0.58,0.65,0.89c0.19,0.31,0.34,0.63,0.46,0.97
		c0.12,0.34,0.17,0.69,0.17,1.06c0,0.54-0.1,1.03-0.3,1.46c-0.2,0.43-0.47,0.79-0.82,1.08c-0.34,0.29-0.75,0.51-1.21,0.67
		c-0.46,0.15-0.95,0.23-1.48,0.23c-0.47,0-0.89-0.06-1.25-0.18c-0.36-0.12-0.67-0.29-0.92-0.49c-0.25-0.2-0.44-0.43-0.57-0.69
		c-0.13-0.26-0.19-0.52-0.19-0.8c0-0.12,0.02-0.24,0.05-0.37c0.03-0.13,0.09-0.25,0.15-0.36c0.07-0.11,0.15-0.2,0.25-0.28
		c0.1-0.08,0.22-0.11,0.35-0.11c0.14,0,0.25,0.04,0.34,0.11c0.09,0.07,0.15,0.17,0.2,0.29c0.05,0.12,0.09,0.26,0.13,0.41
		c0.03,0.15,0.07,0.31,0.1,0.47c0.04,0.16,0.08,0.32,0.14,0.47c0.06,0.15,0.13,0.29,0.23,0.41c0.1,0.12,0.22,0.22,0.37,0.29
		C195.8,131.02,195.99,131.05,196.23,131.05z"/>
	<path class="st15" d="M207.43,128.74c0,0.04,0,0.09,0.01,0.14c0,0.05,0.02,0.1,0.03,0.14c0.02,0.05,0.05,0.08,0.08,0.11
		c0.04,0.03,0.09,0.04,0.16,0.04c0.09,0,0.17-0.03,0.24-0.1c0.07-0.07,0.13-0.13,0.19-0.2l0.17,0.15c-0.07,0.1-0.16,0.21-0.26,0.34
		c-0.1,0.12-0.23,0.24-0.38,0.35c-0.15,0.11-0.32,0.2-0.51,0.28c-0.19,0.07-0.4,0.11-0.64,0.11c-0.2,0-0.38-0.03-0.53-0.08
		c-0.15-0.06-0.28-0.13-0.38-0.22c-0.1-0.09-0.18-0.2-0.23-0.33c-0.05-0.13-0.08-0.26-0.08-0.41v-0.33
		c-0.23,0.26-0.47,0.49-0.73,0.69c-0.11,0.09-0.23,0.17-0.35,0.25c-0.12,0.08-0.25,0.16-0.39,0.22c-0.13,0.07-0.27,0.12-0.42,0.16
		s-0.29,0.06-0.43,0.06c-0.28,0-0.51-0.05-0.71-0.16c-0.2-0.1-0.35-0.24-0.47-0.41c-0.12-0.17-0.21-0.36-0.26-0.57
		c-0.06-0.21-0.08-0.42-0.08-0.64v-4.48c0-0.04,0-0.09-0.01-0.14c0-0.05-0.02-0.1-0.03-0.14c-0.02-0.05-0.05-0.08-0.08-0.11
		c-0.04-0.03-0.09-0.04-0.16-0.04c-0.08,0-0.16,0.03-0.23,0.1c-0.07,0.07-0.14,0.13-0.19,0.2l-0.17-0.15
		c0.07-0.1,0.16-0.21,0.26-0.34c0.1-0.12,0.23-0.24,0.38-0.35c0.15-0.11,0.32-0.2,0.51-0.28c0.19-0.07,0.41-0.11,0.64-0.11
		c0.2,0,0.38,0.03,0.53,0.08c0.15,0.06,0.28,0.13,0.38,0.22c0.1,0.09,0.18,0.2,0.23,0.33c0.05,0.13,0.08,0.26,0.08,0.41v4.83
		c0,0.07,0.01,0.14,0.03,0.21c0.02,0.07,0.05,0.13,0.09,0.19c0.04,0.06,0.09,0.1,0.15,0.14c0.06,0.04,0.13,0.05,0.21,0.05
		c0.13,0,0.27-0.04,0.4-0.11c0.13-0.07,0.26-0.16,0.37-0.26c0.11-0.1,0.21-0.2,0.29-0.29c0.08-0.1,0.14-0.17,0.18-0.22v-4.22
		c0-0.04,0-0.09-0.01-0.14c0-0.05-0.02-0.1-0.03-0.14c-0.02-0.05-0.05-0.08-0.08-0.11c-0.04-0.03-0.09-0.04-0.16-0.04
		c-0.08,0-0.16,0.03-0.23,0.1c-0.07,0.07-0.14,0.13-0.19,0.2l-0.17-0.15c0.07-0.1,0.16-0.21,0.26-0.34c0.1-0.12,0.23-0.24,0.38-0.35
		c0.15-0.11,0.32-0.2,0.51-0.28c0.19-0.07,0.41-0.11,0.64-0.11c0.2,0,0.38,0.03,0.53,0.08c0.15,0.06,0.28,0.13,0.38,0.22
		c0.1,0.09,0.18,0.2,0.23,0.33c0.05,0.13,0.08,0.26,0.08,0.41V128.74z"/>
	<path class="st15" d="M211.4,124.46c0.16-0.23,0.34-0.46,0.52-0.69c0.18-0.23,0.38-0.44,0.6-0.63c0.21-0.19,0.44-0.34,0.69-0.46
		c0.25-0.12,0.52-0.18,0.82-0.18c0.26,0,0.48,0.05,0.66,0.16c0.18,0.11,0.32,0.24,0.43,0.39c0.11,0.15,0.18,0.31,0.23,0.47
		c0.04,0.16,0.07,0.3,0.07,0.42c0,0.21-0.03,0.43-0.08,0.66c-0.05,0.23-0.14,0.46-0.27,0.68c-0.13,0.22-0.3,0.44-0.51,0.65
		c-0.21,0.21-0.48,0.4-0.8,0.57c0.43,0.96,0.86,1.79,1.27,2.48c0.41,0.69,0.81,1.26,1.19,1.71c0.38,0.45,0.75,0.77,1.1,0.99
		c0.35,0.21,0.69,0.32,1.01,0.32c0.06,0,0.11-0.01,0.17-0.02c0.06-0.01,0.11-0.03,0.15-0.05c0.05-0.02,0.1-0.04,0.16-0.07l0.13,0.25
		c-0.13,0.07-0.25,0.14-0.38,0.21c-0.13,0.07-0.28,0.12-0.44,0.17c-0.17,0.05-0.36,0.09-0.58,0.12c-0.22,0.03-0.48,0.04-0.78,0.04
		c-0.27,0-0.54-0.03-0.81-0.1c-0.27-0.07-0.53-0.19-0.8-0.36c-0.27-0.17-0.54-0.4-0.82-0.69c-0.28-0.29-0.56-0.66-0.85-1.1
		c-0.29-0.44-0.59-0.97-0.89-1.58c-0.31-0.61-0.62-1.33-0.95-2.15c0.44-0.34,0.79-0.66,1.05-0.95c0.25-0.29,0.45-0.56,0.58-0.79
		c0.13-0.24,0.21-0.45,0.24-0.63c0.03-0.18,0.05-0.34,0.05-0.47c0-0.02,0-0.05-0.01-0.1c0-0.05-0.02-0.09-0.04-0.13
		c-0.03-0.04-0.06-0.08-0.11-0.12c-0.05-0.03-0.12-0.05-0.2-0.05c-0.17,0-0.34,0.08-0.52,0.23c-0.18,0.15-0.34,0.34-0.5,0.56
		c-0.16,0.22-0.3,0.47-0.43,0.72c-0.13,0.26-0.24,0.49-0.32,0.7v3.73c0,0.06-0.01,0.14-0.03,0.22c-0.02,0.09-0.07,0.17-0.15,0.25
		c-0.08,0.08-0.19,0.14-0.33,0.2c-0.15,0.06-0.34,0.08-0.59,0.08s-0.44-0.03-0.58-0.09c-0.14-0.06-0.24-0.13-0.31-0.21
		c-0.07-0.08-0.11-0.17-0.12-0.25c-0.02-0.09-0.02-0.16-0.02-0.21v-9.33c0-0.14-0.03-0.26-0.09-0.37c-0.06-0.1-0.17-0.16-0.32-0.16
		c-0.08,0-0.15,0.01-0.2,0.04c-0.06,0.03-0.12,0.07-0.18,0.12l-0.14-0.17c0.11-0.09,0.22-0.18,0.35-0.27s0.27-0.17,0.43-0.24
		c0.15-0.07,0.32-0.12,0.5-0.17c0.18-0.04,0.36-0.07,0.56-0.07c0.3,0,0.53,0.04,0.7,0.13c0.17,0.08,0.29,0.19,0.37,0.31
		s0.13,0.25,0.14,0.39c0.02,0.14,0.02,0.26,0.02,0.36V124.46z"/>
	<path class="st15" d="M223.07,127.41l-2.5-5.18l-0.09,1.74c-0.03,0.51-0.05,1.01-0.07,1.51c-0.02,0.5-0.06,0.97-0.11,1.42
		c-0.06,0.45-0.14,0.87-0.26,1.25c-0.12,0.39-0.29,0.72-0.51,1c-0.22,0.28-0.52,0.5-0.87,0.66c-0.36,0.16-0.81,0.24-1.34,0.24
		c-0.24,0-0.46-0.02-0.68-0.06c-0.22-0.04-0.41-0.1-0.58-0.17c-0.17-0.07-0.3-0.16-0.4-0.26c-0.1-0.1-0.15-0.21-0.15-0.32
		c0-0.09,0.01-0.17,0.03-0.26c0.02-0.09,0.06-0.17,0.1-0.25c0.05-0.07,0.1-0.14,0.17-0.18c0.07-0.05,0.14-0.07,0.23-0.07
		c0.05,0,0.1,0.03,0.14,0.08c0.04,0.05,0.08,0.12,0.12,0.2c0.04,0.08,0.09,0.17,0.14,0.26c0.05,0.09,0.12,0.18,0.21,0.26
		c0.09,0.08,0.19,0.15,0.31,0.2c0.12,0.05,0.27,0.08,0.45,0.08c0.36,0,0.66-0.06,0.9-0.19c0.24-0.13,0.44-0.31,0.6-0.55
		c0.16-0.24,0.28-0.53,0.36-0.87c0.08-0.34,0.14-0.73,0.19-1.16c0.02-0.24,0.04-0.47,0.06-0.7c0.02-0.22,0.04-0.45,0.06-0.67
		c0.02-0.22,0.04-0.45,0.05-0.68c0.02-0.23,0.03-0.47,0.05-0.73c0.02-0.37,0.04-0.72,0.06-1.06c0.02-0.34,0.03-0.65,0.04-0.94
		c0.01-0.29,0.02-0.55,0.03-0.78c0.01-0.23,0.01-0.43,0.02-0.6c-0.08-0.17-0.15-0.3-0.21-0.41c-0.06-0.1-0.12-0.18-0.19-0.24
		c-0.06-0.06-0.14-0.09-0.21-0.11c-0.08-0.02-0.17-0.03-0.28-0.03c-0.09,0-0.21,0.02-0.34,0.05c-0.14,0.04-0.28,0.09-0.42,0.16
		c-0.15,0.07-0.29,0.15-0.44,0.25c-0.15,0.1-0.28,0.21-0.39,0.34c-0.11,0.13-0.21,0.27-0.28,0.42c-0.07,0.15-0.11,0.32-0.11,0.5
		c0,0.15,0.02,0.28,0.06,0.37c0.04,0.09,0.09,0.16,0.14,0.21c0.05,0.05,0.11,0.07,0.16,0.09c0.05,0.01,0.09,0.02,0.11,0.02
		c0.12,0,0.21-0.02,0.28-0.06c0.07-0.04,0.14-0.08,0.2-0.13c0.06-0.05,0.12-0.09,0.17-0.13c0.05-0.04,0.11-0.06,0.18-0.06
		c0.06,0,0.11,0.01,0.18,0.04c0.06,0.03,0.12,0.07,0.17,0.13c0.05,0.06,0.1,0.13,0.14,0.23c0.04,0.09,0.06,0.21,0.06,0.34
		c0,0.19-0.04,0.36-0.11,0.5c-0.07,0.14-0.16,0.26-0.28,0.35c-0.11,0.09-0.24,0.16-0.39,0.21c-0.15,0.05-0.29,0.07-0.43,0.07
		c-0.22,0-0.42-0.04-0.6-0.12c-0.18-0.08-0.33-0.19-0.45-0.33c-0.13-0.14-0.22-0.3-0.28-0.49s-0.1-0.39-0.1-0.6
		c0-0.5,0.11-0.94,0.33-1.31c0.22-0.37,0.51-0.69,0.87-0.94c0.36-0.25,0.77-0.44,1.22-0.56s0.92-0.18,1.39-0.18
		c0.38,0,0.7,0.04,0.95,0.12c0.25,0.08,0.47,0.19,0.64,0.32c0.17,0.13,0.31,0.29,0.42,0.47c0.11,0.18,0.21,0.37,0.3,0.56l1.83,3.88
		c0.48-0.98,0.91-1.85,1.3-2.63c0.39-0.77,0.75-1.45,1.09-2.04c0.33-0.59,0.64-1.09,0.93-1.5c0.29-0.41,0.57-0.75,0.84-1.02
		c0.27-0.26,0.54-0.45,0.8-0.58c0.27-0.12,0.54-0.18,0.83-0.18c0.25,0,0.44,0.05,0.6,0.16c0.15,0.11,0.23,0.27,0.23,0.49
		c0,0.19-0.03,0.35-0.09,0.48c-0.06,0.13-0.14,0.19-0.25,0.19c-0.09,0-0.16-0.03-0.2-0.1c-0.05-0.07-0.09-0.15-0.14-0.23
		c-0.04-0.08-0.1-0.16-0.16-0.23c-0.06-0.07-0.16-0.1-0.28-0.1c-0.07,0-0.16,0.02-0.27,0.06c-0.11,0.04-0.22,0.11-0.33,0.2
		s-0.23,0.2-0.34,0.33c-0.11,0.13-0.21,0.28-0.29,0.46c-0.08,0.17-0.15,0.37-0.19,0.59c-0.05,0.22-0.06,0.47-0.04,0.73
		c0.02,0.3,0.04,0.66,0.08,1.07c0.03,0.41,0.07,0.84,0.11,1.31c0.04,0.47,0.08,0.95,0.13,1.44c0.04,0.5,0.09,0.99,0.14,1.47
		c0.05,0.48,0.09,0.95,0.14,1.39c0.04,0.44,0.08,0.84,0.12,1.2c0.04,0.36,0.07,0.66,0.1,0.91c0.03,0.25,0.06,0.42,0.08,0.51
		c0.03,0.14,0.06,0.25,0.11,0.34c0.05,0.08,0.13,0.13,0.25,0.13c0.13,0,0.24-0.02,0.35-0.07c0.11-0.05,0.21-0.09,0.3-0.14l0.11,0.27
		c-0.08,0.06-0.19,0.13-0.32,0.21c-0.13,0.08-0.27,0.16-0.44,0.23c-0.16,0.07-0.34,0.13-0.54,0.18c-0.2,0.05-0.41,0.07-0.63,0.07
		c-0.32,0-0.57-0.04-0.76-0.13c-0.19-0.08-0.33-0.19-0.43-0.31c-0.1-0.12-0.17-0.25-0.2-0.39c-0.03-0.14-0.06-0.26-0.08-0.37
		c-0.04-0.25-0.09-0.54-0.13-0.89c-0.05-0.35-0.09-0.72-0.14-1.12c-0.04-0.4-0.09-0.81-0.13-1.23c-0.04-0.42-0.08-0.83-0.11-1.24
		c-0.03-0.4-0.07-0.78-0.09-1.14c-0.03-0.36-0.05-0.67-0.07-0.93c-0.14,0.24-0.27,0.46-0.38,0.68c-0.12,0.22-0.23,0.44-0.34,0.67
		c-0.11,0.23-0.22,0.47-0.34,0.72c-0.12,0.25-0.24,0.52-0.36,0.82c-0.13,0.29-0.27,0.62-0.42,0.97c-0.15,0.35-0.32,0.74-0.5,1.18
		H223.07z"/>
	<path class="st15" d="M233.06,123.09c-0.16,0-0.3,0.02-0.44,0.06c-0.13,0.04-0.25,0.09-0.35,0.14c-0.1,0.06-0.17,0.12-0.23,0.19
		c-0.06,0.07-0.08,0.14-0.08,0.2c0,0.07,0.04,0.12,0.11,0.16c0.07,0.03,0.15,0.07,0.24,0.11c0.09,0.04,0.17,0.1,0.24,0.17
		c0.07,0.08,0.11,0.19,0.11,0.34c0,0.1-0.02,0.19-0.06,0.28s-0.09,0.16-0.16,0.22c-0.07,0.07-0.15,0.12-0.24,0.15
		c-0.09,0.04-0.18,0.05-0.28,0.05c-0.26,0-0.47-0.09-0.63-0.27c-0.16-0.18-0.24-0.43-0.24-0.73c0-0.29,0.07-0.55,0.22-0.76
		c0.15-0.21,0.34-0.38,0.58-0.52c0.24-0.13,0.51-0.24,0.81-0.3c0.3-0.07,0.6-0.1,0.9-0.1c0.36,0,0.71,0.04,1.03,0.12
		c0.33,0.08,0.62,0.21,0.87,0.39c0.25,0.18,0.45,0.41,0.6,0.68s0.23,0.61,0.23,1v4.09c0,0.04,0,0.09,0.01,0.14
		c0.01,0.05,0.02,0.1,0.04,0.14c0.02,0.04,0.05,0.08,0.08,0.11c0.04,0.03,0.09,0.04,0.16,0.04c0.08,0,0.16-0.03,0.23-0.1
		c0.07-0.07,0.14-0.13,0.19-0.2l0.17,0.15c-0.07,0.1-0.15,0.21-0.25,0.33c-0.1,0.12-0.21,0.23-0.35,0.34
		c-0.14,0.11-0.3,0.19-0.49,0.27c-0.18,0.07-0.4,0.11-0.63,0.11c-0.29,0-0.55-0.09-0.78-0.27c-0.23-0.18-0.38-0.46-0.44-0.84
		c-0.15,0.21-0.3,0.38-0.46,0.52c-0.16,0.14-0.32,0.25-0.49,0.34c-0.17,0.09-0.33,0.15-0.5,0.19s-0.34,0.06-0.51,0.06
		c-0.22,0-0.44-0.04-0.64-0.11c-0.21-0.07-0.39-0.19-0.56-0.34c-0.16-0.16-0.3-0.36-0.4-0.61c-0.1-0.25-0.15-0.56-0.15-0.92
		c0-0.44,0.08-0.8,0.25-1.08c0.17-0.28,0.38-0.51,0.66-0.7c0.27-0.19,0.58-0.35,0.92-0.49c0.34-0.13,0.7-0.28,1.06-0.43
		c0.27-0.11,0.46-0.28,0.59-0.5c0.12-0.22,0.18-0.44,0.18-0.68c0-0.36-0.1-0.64-0.3-0.86C233.68,123.2,233.4,123.09,233.06,123.09z
		 M234.16,126.26c0-0.12-0.04-0.21-0.11-0.27c-0.07-0.06-0.17-0.09-0.28-0.09c-0.16,0-0.32,0.04-0.46,0.12
		c-0.15,0.08-0.27,0.19-0.38,0.34c-0.11,0.15-0.2,0.33-0.26,0.55c-0.06,0.22-0.1,0.47-0.1,0.76c0,0.28,0.02,0.51,0.06,0.69
		c0.04,0.18,0.09,0.33,0.16,0.44c0.07,0.11,0.14,0.18,0.23,0.23c0.09,0.04,0.18,0.07,0.28,0.07c0.12,0,0.23-0.03,0.34-0.1
		c0.11-0.07,0.2-0.15,0.28-0.25c0.08-0.1,0.14-0.21,0.19-0.34c0.05-0.13,0.07-0.25,0.07-0.38V126.26z"/>
</g>
</svg>
